<svg width="1544" height="683" xmlns="http://www.w3.org/2000/svg" xmlns:xlink="http://www.w3.org/1999/xlink" xml:space="preserve" overflow="hidden"><defs><clipPath id="clip0"><rect x="2391" y="448" width="1544" height="683"/></clipPath></defs><g clip-path="url(#clip0)" transform="translate(-2391 -448)"><path d="M3119.04 508.695C3111.85 511.582 3107.21 513.627 3105.12 514.83 3101.36 516.947 3098.67 519.16 3097.06 521.47 3095.44 523.779 3094.63 526.305 3094.63 529.047 3094.63 532.512 3095.65 535.386 3097.7 537.672 3099.74 539.957 3102.1 541.1 3104.76 541.1 3108.38 541.1 3113.14 538.694 3119.04 533.883ZM2772.35 508.695C2765.17 511.582 2760.53 513.627 2758.44 514.83 2754.68 516.947 2751.99 519.16 2750.37 521.47 2748.75 523.779 2747.95 526.305 2747.95 529.047 2747.95 532.512 2748.97 535.386 2751.01 537.672 2753.06 539.957 2755.42 541.1 2758.08 541.1 2761.7 541.1 2766.45 538.694 2772.35 533.883ZM3748.03 485.096C3744.08 485.096 3740.55 486.647 3737.43 489.751 3734.32 492.854 3732.5 497.172 3731.97 502.705L3762.23 502.705C3761.99 498.471 3761.49 495.488 3760.73 493.756 3759.54 491.062 3757.77 488.945 3755.42 487.405 3753.06 485.865 3750.6 485.096 3748.03 485.096ZM3451.64 484.735C3449.12 484.735 3446.59 485.493 3444.04 487.008 3441.5 488.524 3439.44 491.182 3437.87 494.983 3436.3 498.784 3435.51 503.667 3435.51 509.634 3435.51 519.256 3437.41 527.556 3441.19 534.532 3444.97 541.509 3449.95 544.997 3456.14 544.997 3460.75 544.997 3464.56 543.073 3467.56 539.224 3470.55 535.375 3472.05 528.759 3472.05 519.377 3472.05 507.637 3469.55 498.399 3464.56 491.663 3461.18 487.044 3456.88 484.735 3451.64 484.735ZM2582.05 481.992 2612.53 481.992 2612.53 484.663 2611.03 484.663C2608.89 484.663 2607.28 485.132 2606.21 486.07 2605.14 487.008 2604.6 488.175 2604.6 489.57 2604.6 491.447 2605.39 494.045 2606.96 497.365L2622.87 530.707 2637.5 494.189C2638.31 492.216 2638.72 490.268 2638.72 488.343 2638.72 487.477 2638.55 486.827 2638.22 486.395 2637.84 485.865 2637.24 485.444 2636.43 485.132 2635.62 484.819 2634.2 484.663 2632.15 484.663L2632.15 481.992 2653.42 481.992 2653.42 484.663C2651.66 484.855 2650.3 485.24 2649.35 485.817 2648.4 486.395 2647.35 487.477 2646.21 489.065 2645.78 489.739 2644.97 491.591 2643.78 494.622L2617.16 560.586C2614.6 566.985 2611.23 571.82 2607.07 575.092 2602.9 578.364 2598.9 580 2595.04 580 2592.24 580 2589.93 579.182 2588.12 577.546 2586.31 575.91 2585.41 574.034 2585.41 571.917 2585.41 569.896 2586.06 568.272 2587.37 567.045 2588.68 565.818 2590.48 565.205 2592.76 565.205 2594.33 565.205 2596.47 565.734 2599.18 566.793 2601.08 567.514 2602.27 567.875 2602.75 567.875 2604.18 567.875 2605.73 567.129 2607.42 565.638 2609.11 564.146 2610.81 561.26 2612.53 556.978L2617.16 545.502 2593.69 495.632C2592.97 494.141 2591.83 492.289 2590.26 490.075 2589.07 488.392 2588.1 487.261 2587.33 486.683 2586.24 485.913 2584.48 485.24 2582.05 484.663ZM3883.12 480.044 3886.19 480.044 3886.19 494.045C3893.85 484.711 3901.15 480.044 3908.1 480.044 3911.66 480.044 3914.73 480.946 3917.3 482.75 3919.87 484.554 3921.92 487.525 3923.44 491.663 3924.49 494.55 3925.01 498.976 3925.01 504.942L3925.01 533.161C3925.01 537.347 3925.34 540.186 3926.01 541.677 3926.53 542.88 3927.38 543.818 3928.54 544.492 3929.71 545.165 3931.86 545.502 3935 545.502L3935 548.1 3902.67 548.1 3902.67 545.502 3904.03 545.502C3907.07 545.502 3909.2 545.033 3910.42 544.095 3911.63 543.157 3912.47 541.774 3912.95 539.945 3913.14 539.224 3913.23 536.962 3913.23 533.161L3913.23 506.097C3913.23 500.083 3912.46 495.717 3910.92 492.998 3909.37 490.28 3906.76 488.921 3903.1 488.921 3897.44 488.921 3891.8 492.048 3886.19 498.303L3886.19 533.161C3886.19 537.636 3886.45 540.402 3886.97 541.461 3887.64 542.856 3888.55 543.879 3889.72 544.528 3890.89 545.178 3893.25 545.502 3896.82 545.502L3896.82 548.1 3864.49 548.1 3864.49 545.502 3865.92 545.502C3869.25 545.502 3871.5 544.648 3872.66 542.94 3873.83 541.232 3874.41 537.972 3874.41 533.161L3874.41 508.623C3874.41 500.684 3874.23 495.849 3873.88 494.117 3873.52 492.385 3872.97 491.206 3872.24 490.581 3871.5 489.955 3870.51 489.642 3869.27 489.642 3867.94 489.642 3866.35 490.003 3864.49 490.725L3863.42 488.127ZM3600.64 480.044C3603.21 480.044 3606.32 480.597 3609.99 481.703 3612.41 482.425 3614.03 482.786 3614.84 482.786 3615.6 482.786 3616.2 482.618 3616.62 482.281 3617.05 481.944 3617.55 481.198 3618.12 480.044L3620.48 480.044 3620.48 502.561 3618.12 502.561C3616.31 495.488 3614 490.677 3611.17 488.127 3608.33 485.577 3604.73 484.302 3600.35 484.302 3597.02 484.302 3594.34 485.192 3592.29 486.972 3590.24 488.752 3589.22 490.725 3589.22 492.89 3589.22 495.584 3589.98 497.894 3591.5 499.818 3592.98 501.791 3595.98 503.884 3600.5 506.097L3610.92 511.221C3620.57 515.985 3625.4 522.263 3625.4 530.058 3625.4 536.072 3623.15 540.919 3618.66 544.6 3614.16 548.281 3609.13 550.121 3603.56 550.121 3599.57 550.121 3595 549.4 3589.86 547.956 3588.29 547.475 3587.01 547.234 3586.01 547.234 3584.92 547.234 3584.06 547.86 3583.44 549.111L3581.09 549.111 3581.09 525.511 3583.44 525.511C3584.77 532.247 3587.32 537.323 3591.08 540.739 3594.83 544.155 3599.05 545.863 3603.71 545.863 3606.99 545.863 3609.67 544.889 3611.74 542.94 3613.81 540.992 3614.84 538.646 3614.84 535.904 3614.84 532.584 3613.69 529.793 3611.38 527.532 3609.07 525.27 3604.47 522.408 3597.57 518.944 3590.67 515.479 3586.15 512.352 3584.01 509.562 3581.87 506.819 3580.8 503.355 3580.8 499.169 3580.8 493.732 3582.64 489.185 3586.33 485.529 3590.02 481.872 3594.79 480.044 3600.64 480.044ZM3453.85 480.044C3463.75 480.044 3471.69 483.845 3477.69 491.447 3482.78 497.942 3485.33 505.4 3485.33 513.819 3485.33 519.737 3483.92 525.728 3481.11 531.79 3478.31 537.852 3474.44 542.423 3469.52 545.502 3464.59 548.581 3459.11 550.121 3453.07 550.121 3443.22 550.121 3435.4 546.152 3429.59 538.213 3424.69 531.525 3422.24 524.02 3422.24 515.696 3422.24 509.634 3423.73 503.607 3426.7 497.617 3429.67 491.627 3433.59 487.201 3438.44 484.338 3443.29 481.475 3448.43 480.044 3453.85 480.044ZM3109.04 480.044C3114.85 480.044 3119.61 481.03 3123.32 483.003 3126.12 484.494 3128.19 486.827 3129.53 490.003 3130.38 492.072 3130.81 496.306 3130.81 502.705L3130.81 525.15C3130.81 531.453 3130.93 535.314 3131.17 536.734 3131.41 538.153 3131.8 539.103 3132.34 539.584 3132.89 540.066 3133.52 540.306 3134.24 540.306 3135 540.306 3135.66 540.138 3136.23 539.801 3137.23 539.175 3139.16 537.419 3142.01 534.532L3142.01 538.574C3136.69 545.791 3131.6 549.4 3126.74 549.4 3124.41 549.4 3122.56 548.581 3121.18 546.946 3119.8 545.31 3119.08 542.519 3119.04 538.574 3112.33 543.818 3108.12 546.85 3106.4 547.667 3103.84 548.87 3101.1 549.472 3098.2 549.472 3093.68 549.472 3089.96 547.908 3087.03 544.781 3084.1 541.653 3082.64 537.539 3082.64 532.44 3082.64 529.216 3083.35 526.425 3084.78 524.068 3086.73 520.796 3090.12 517.717 3094.95 514.83 3099.78 511.943 3107.81 508.431 3119.04 504.293L3119.04 501.695C3119.04 495.103 3118 490.581 3115.93 488.127 3113.86 485.673 3110.85 484.446 3106.9 484.446 3103.91 484.446 3101.53 485.264 3099.77 486.9 3097.96 488.536 3097.06 490.412 3097.06 492.529L3097.2 496.715C3097.2 498.928 3096.64 500.636 3095.52 501.839 3094.4 503.042 3092.94 503.644 3091.13 503.644 3089.37 503.644 3087.93 503.018 3086.82 501.767 3085.7 500.516 3085.14 498.808 3085.14 496.643 3085.14 492.505 3087.23 488.704 3091.42 485.24 3095.6 481.776 3101.48 480.044 3109.04 480.044ZM2904.61 480.044 2907.67 480.044 2907.67 494.117C2912.43 489.306 2915.24 486.539 2916.09 485.817 2918.24 483.989 2920.54 482.57 2923.02 481.559 2925.49 480.549 2927.94 480.044 2930.37 480.044 2934.46 480.044 2937.98 481.247 2940.93 483.652 2943.88 486.058 2945.85 489.546 2946.85 494.117 2951.75 488.343 2955.89 484.554 2959.27 482.75 2962.65 480.946 2966.12 480.044 2969.69 480.044 2973.16 480.044 2976.24 480.946 2978.93 482.75 2981.62 484.554 2983.75 487.501 2985.32 491.591 2986.36 494.382 2986.89 498.76 2986.89 504.726L2986.89 533.161C2986.89 537.299 2987.2 540.138 2987.81 541.677 2988.29 542.736 2989.17 543.638 2990.45 544.384 2991.74 545.129 2993.83 545.502 2996.73 545.502L2996.73 548.1 2964.48 548.1 2964.48 545.502 2965.83 545.502C2968.64 545.502 2970.83 544.949 2972.4 543.842 2973.49 543.073 2974.28 541.846 2974.76 540.161 2974.95 539.344 2975.04 537.01 2975.04 533.161L2975.04 504.726C2975.04 499.337 2974.4 495.536 2973.11 493.323 2971.26 490.244 2968.28 488.704 2964.19 488.704 2961.67 488.704 2959.14 489.342 2956.59 490.617 2954.05 491.892 2950.97 494.261 2947.35 497.726L2947.21 498.519 2947.35 501.623 2947.35 533.161C2947.35 537.684 2947.6 540.499 2948.1 541.605 2948.6 542.712 2949.54 543.638 2950.92 544.384 2952.3 545.129 2954.65 545.502 2957.98 545.502L2957.98 548.1 2924.94 548.1 2924.94 545.502C2928.56 545.502 2931.05 545.069 2932.4 544.203 2933.76 543.337 2934.7 542.038 2935.22 540.306 2935.46 539.488 2935.58 537.106 2935.58 533.161L2935.58 504.726C2935.58 499.337 2934.79 495.464 2933.22 493.106 2931.13 490.027 2928.2 488.488 2924.44 488.488 2921.88 488.488 2919.33 489.185 2916.81 490.581 2912.86 492.697 2909.81 495.079 2907.67 497.726L2907.67 533.161C2907.67 537.491 2907.97 540.306 2908.57 541.605 2909.16 542.904 2910.04 543.879 2911.21 544.528 2912.37 545.178 2914.74 545.502 2918.31 545.502L2918.31 548.1 2885.98 548.1 2885.98 545.502C2888.98 545.502 2891.07 545.178 2892.26 544.528 2893.45 543.879 2894.35 542.844 2894.97 541.425 2895.59 540.005 2895.9 537.251 2895.9 533.161L2895.9 507.901C2895.9 500.636 2895.69 495.945 2895.26 493.828 2894.92 492.241 2894.4 491.146 2893.69 490.544 2892.97 489.943 2892 489.642 2890.76 489.642 2889.43 489.642 2887.84 490.003 2885.98 490.725L2884.91 488.127ZM2762.36 480.044C2768.17 480.044 2772.92 481.03 2776.63 483.003 2779.44 484.494 2781.51 486.827 2782.84 490.003 2783.7 492.072 2784.13 496.306 2784.13 502.705L2784.13 525.15C2784.13 531.453 2784.25 535.314 2784.48 536.734 2784.72 538.153 2785.11 539.103 2785.66 539.584 2786.21 540.066 2786.84 540.306 2787.55 540.306 2788.31 540.306 2788.98 540.138 2789.55 539.801 2790.55 539.175 2792.48 537.419 2795.33 534.532L2795.33 538.574C2790 545.791 2784.91 549.4 2780.06 549.4 2777.73 549.4 2775.87 548.581 2774.49 546.946 2773.11 545.31 2772.4 542.519 2772.35 538.574 2765.64 543.818 2761.43 546.85 2759.72 547.667 2757.15 548.87 2754.42 549.472 2751.51 549.472 2746.99 549.472 2743.27 547.908 2740.35 544.781 2737.42 541.653 2735.96 537.539 2735.96 532.44 2735.96 529.216 2736.67 526.425 2738.1 524.068 2740.05 520.796 2743.44 517.717 2748.27 514.83 2753.1 511.943 2761.12 508.431 2772.35 504.293L2772.35 501.695C2772.35 495.103 2771.32 490.581 2769.25 488.127 2767.18 485.673 2764.17 484.446 2760.22 484.446 2757.22 484.446 2754.84 485.264 2753.08 486.9 2751.28 488.536 2750.37 490.412 2750.37 492.529L2750.52 496.715C2750.52 498.928 2749.96 500.636 2748.84 501.839 2747.72 503.042 2746.26 503.644 2744.45 503.644 2742.69 503.644 2741.25 503.018 2740.13 501.767 2739.01 500.516 2738.45 498.808 2738.45 496.643 2738.45 492.505 2740.55 488.704 2744.73 485.24 2748.92 481.776 2754.8 480.044 2762.36 480.044ZM3752.03 479.972C3759.35 479.972 3765.37 482.413 3770.08 487.297 3774.79 492.18 3777.15 498.712 3777.15 506.891L3731.97 506.891C3731.93 516.706 3734.28 524.404 3739.04 529.986 3743.8 535.567 3749.39 538.357 3755.81 538.357 3760.09 538.357 3763.81 537.167 3766.98 534.785 3770.14 532.403 3772.79 528.326 3774.93 522.552L3777.15 523.995C3776.15 530.587 3773.24 536.589 3768.44 542.002 3763.63 547.415 3757.62 550.121 3750.38 550.121 3742.53 550.121 3735.81 547.03 3730.22 540.847 3724.63 534.665 3721.84 526.353 3721.84 515.913 3721.84 504.606 3724.71 495.789 3730.44 489.462 3736.17 483.135 3743.37 479.972 3752.03 479.972ZM2442.96 453.268C2434.3 453.268 2427.35 456.516 2422.12 463.011 2415.6 471.094 2412.34 482.93 2412.34 498.519 2412.34 514.493 2415.72 526.786 2422.48 535.398 2427.66 541.942 2434.51 545.214 2443.03 545.214 2452.11 545.214 2459.62 541.629 2465.54 534.46 2471.47 527.291 2474.43 515.985 2474.43 500.54 2474.43 483.797 2471.17 471.311 2464.65 463.083 2459.42 456.54 2452.19 453.268 2442.96 453.268ZM3229.41 450.237 3270.65 450.237 3270.65 452.907 3267.37 452.907C3265.14 452.907 3262.97 453.461 3260.88 454.567 3259.4 455.337 3258.38 456.492 3257.81 458.031 3257.24 459.571 3256.95 462.747 3256.95 467.558L3256.95 497.509C3257.9 496.595 3261.16 493.539 3266.73 488.343 3280.86 475.256 3289.4 466.524 3292.35 462.145 3293.63 460.221 3294.28 458.537 3294.28 457.093 3294.28 455.987 3293.78 455.012 3292.78 454.171 3291.78 453.329 3290.09 452.907 3287.71 452.907L3285.5 452.907 3285.5 450.237 3321.04 450.237 3321.04 452.907C3318.94 452.955 3317.04 453.244 3315.33 453.774 3313.61 454.303 3311.52 455.325 3309.05 456.841 3306.57 458.356 3303.53 460.798 3299.91 464.166 3298.87 465.128 3294.04 470.06 3285.43 478.961L3270.65 493.828 3306.34 529.697C3312.19 535.615 3317.18 539.644 3321.32 541.785 3325.46 543.927 3329.6 545.142 3333.74 545.43L3333.74 548.1 3287.71 548.1 3287.71 545.43C3290.47 545.43 3292.46 544.961 3293.67 544.023 3294.88 543.085 3295.49 542.038 3295.49 540.883 3295.49 539.728 3295.26 538.694 3294.81 537.78 3294.36 536.866 3292.87 535.158 3290.35 532.656L3256.95 499.241 3256.95 530.779C3256.95 535.735 3257.26 539.007 3257.88 540.595 3258.36 541.797 3259.36 542.832 3260.88 543.698 3262.92 544.853 3265.09 545.43 3267.37 545.43L3270.65 545.43 3270.65 548.1 3229.41 548.1 3229.41 545.43 3232.83 545.43C3236.83 545.43 3239.73 544.251 3241.54 541.894 3242.68 540.354 3243.25 536.649 3243.25 530.779L3243.25 467.558C3243.25 462.602 3242.94 459.306 3242.32 457.671 3241.85 456.516 3240.87 455.506 3239.4 454.64 3237.3 453.485 3235.12 452.907 3232.83 452.907L3229.41 452.907ZM2444.31 448C2456.87 448 2467.76 452.823 2476.96 462.47 2486.17 472.117 2490.77 484.157 2490.77 498.591 2490.77 513.459 2486.13 525.8 2476.85 535.615 2467.58 545.43 2456.35 550.338 2443.17 550.338 2429.85 550.338 2418.66 545.55 2409.59 535.976 2400.53 526.401 2396 514.012 2396 498.808 2396 483.267 2401.23 470.589 2411.7 460.774 2420.79 452.258 2431.66 448 2444.31 448Z" fill-rule="evenodd"/><path d="M2398.2 840.271 2444.39 840.271 2473.82 840.271C2478.77 840.271 2486.19 840.363 2496.09 840.547 2505.99 840.731 2513.41 840.823 2518.36 840.823 2520.01 842.479 2520.84 844.503 2520.84 846.896L2520.29 849.656 2518.91 851.036 2465.84 851.864 2452.92 851.864 2449.07 851.864 2443.29 851.864 2436.97 851.864 2430.65 851.864 2424.87 851.864 2419.92 851.864 2415.8 851.864 2412.5 851.864C2403.88 851.864 2399.3 851.588 2398.75 851.036 2397.1 849.932 2396.27 848.276 2396.27 846.067L2396.82 841.099ZM2505.99 817.637C2510.94 817.637 2514.65 818.005 2517.12 818.741 2519.6 819.477 2520.84 821.133 2520.84 823.71L2520.29 828.402 2517.81 829.506 2398.2 829.506 2396 825.09 2396.82 819.845 2398.2 818.465 2443.84 818.465 2492.24 818.465C2492.97 818.465 2494.94 818.327 2498.15 818.051 2501.36 817.775 2503.97 817.637 2505.99 817.637ZM2401.5 796.107 2517.54 797.211C2519.74 798.867 2520.84 800.708 2520.84 802.732 2520.84 806.044 2519.37 807.7 2516.44 807.7L2398.75 807.7C2396.92 807.7 2396 806.32 2396 803.56 2396 802.456 2396.05 801.122 2396.14 799.558 2396.23 797.993 2396.82 797.211 2397.92 797.211 2399.76 797.211 2400.95 796.843 2401.5 796.107ZM2398.47 774.854C2399.57 774.854 2400.4 774.854 2400.95 774.854L2517.54 774.854C2519.37 774.854 2520.29 776.602 2520.29 780.098L2519.74 784.238C2511.85 784.238 2501.91 784.468 2489.9 784.928 2477.89 785.388 2470.97 785.618 2469.14 785.618L2399.02 785.618C2397.01 785.618 2396 784.422 2396 782.03 2396.18 780.006 2396.27 777.89 2396.27 775.682 2396.64 775.13 2397.37 774.854 2398.47 774.854ZM3771.67 751.668C3772.77 752.03 3773.97 752.301 3775.25 752.483L3899.22 827.915C3905.09 831.215 3909.4 833.692 3912.15 835.346 3921.15 840.481 3928.12 844.975 3933.08 848.828L3933.08 852.416 3932.25 856 3903.83 839.339C3897.42 838.178 3890.04 837.307 3881.71 836.726 3873.37 836.145 3865.73 835.855 3858.77 835.855 3849.79 835.855 3831.93 836.499 3805.19 837.787 3789.99 838.523 3779.36 838.891 3773.32 838.891L3770.84 835.303 3770.84 790.311ZM3771.67 734.554 3778.25 736.762C3787.22 739.891 3801.96 747.619 3822.45 759.948 3838.19 769.333 3856.85 781.202 3878.45 795.555 3895.29 806.596 3909.74 816.441 3921.82 825.09 3923.47 826.194 3925.48 827.574 3927.86 829.23 3931.34 831.806 3933.08 833.554 3933.08 834.474L3932.25 837.235 3930.33 837.235C3928.13 835.947 3911.38 826.102 3880.09 807.7 3847.52 788.563 3823.55 774.209 3808.18 764.641 3783.65 749.367 3771.39 740.719 3771.39 738.694ZM3773.04 716.889C3782.37 720.569 3798.11 729.126 3820.25 742.559 3835.44 751.76 3855.94 764.733 3881.74 781.478 3911.39 800.8 3928.22 811.657 3932.25 814.049L3932.25 819.845 3930.33 819.845 3772.49 725.445 3771.12 720.477ZM3771.67 699.775C3778.27 702.167 3793.3 710.172 3816.76 723.789 3833.81 733.726 3856.08 747.251 3883.58 764.365 3904.85 777.614 3920.7 787.735 3931.15 794.727L3933.08 798.591 3932.25 802.732C3922.35 799.052 3906.4 790.771 3884.41 777.89 3870.66 769.793 3850.4 757.28 3823.64 740.351 3798.52 724.341 3781.75 713.852 3773.32 708.884L3771.12 705.02ZM3771.67 682.386C3789.82 692.691 3807.96 702.995 3826.11 713.3 3853.98 729.126 3872.12 739.615 3880.56 744.767 3896.87 754.52 3914.38 765.929 3933.08 778.994L3933.08 785.066 3930.33 785.066C3914.19 775.682 3898.06 766.297 3881.93 756.912 3857.37 742.743 3841.14 733.266 3833.26 728.482 3816.76 718.545 3800.82 708.516 3785.42 698.395 3782.12 696.371 3779.73 694.807 3778.27 693.703 3773.5 690.39 3771.12 688.274 3771.12 687.354ZM3772.21 664.996 3774.13 664.996 3851.68 711.644 3854.43 709.988 3854.7 677.417 3855.8 676.313 3932.25 676.589C3933.17 680.086 3933.85 684.456 3934.31 689.7 3934.77 694.945 3935 700.051 3935 705.02 3935 708.7 3934.91 713.99 3934.73 720.891 3934.54 727.792 3934.45 732.714 3934.45 735.658L3934.45 739.799C3934.45 748.263 3933.99 757.74 3933.08 768.229 3931.43 768.413 3917.86 761.032 3892.38 746.087 3876.98 737.047 3852.6 722.195 3819.24 701.531 3792.11 684.739 3776.16 674.683 3771.39 671.362ZM3599.23 664.996C3625.82 664.996 3648.33 674.086 3666.76 692.264 3685.19 710.443 3694.4 732.912 3694.4 759.672 3694.4 786.616 3685.15 809.315 3666.63 827.77 3648.12 846.225 3625.39 855.452 3598.44 855.452 3572.77 855.452 3550.5 846.321 3531.62 828.059 3512.74 809.797 3503.3 787.847 3503.3 762.208 3503.3 757.964 3503.44 754.735 3503.71 752.522 3503.99 750.308 3504.67 746.527 3505.77 741.179 3508.52 740.811 3516.41 744.307 3529.42 751.668 3537.49 756.268 3549.77 763.721 3566.27 774.025 3574.88 779.546 3583.59 785.066 3592.39 790.587L3594.86 788.931C3592.3 784.33 3579.19 774.854 3555.54 760.5 3540.33 751.484 3525.11 742.375 3509.9 733.174L3512.37 724.617C3519.71 728.85 3528.78 734.278 3539.59 740.903 3551.88 748.263 3560.95 753.692 3566.82 757.188 3577.08 763.26 3586.34 768.413 3594.59 772.645L3594.86 767.677C3568.28 750.932 3541.7 734.094 3515.12 717.165L3518.7 710.54C3520.71 710.908 3527.4 714.404 3538.77 721.029 3550.14 727.654 3560.68 733.91 3570.39 739.799 3577.91 744.583 3585.51 749.367 3593.21 754.152L3595.41 751.392 3594.86 749.183C3571.03 734.278 3547.29 719.281 3523.65 704.192L3526.67 698.395 3530.25 698.395 3593.21 735.934 3595.69 732.07C3589.46 725.445 3579.56 718.361 3565.99 710.816 3548.21 700.695 3537.58 694.439 3534.1 692.047L3539.88 686.526C3558.24 697.015 3576.69 707.412 3595.24 717.717L3595.51 712.58 3547.79 682.205 3548.34 679.664C3555.31 674.777 3563.28 671.11 3572.27 668.664 3581.25 666.219 3590.24 664.996 3599.23 664.996ZM3028.67 664.996C3055.26 664.996 3077.77 674.086 3096.2 692.264 3114.63 710.443 3123.84 732.912 3123.84 759.672 3123.84 786.616 3114.58 809.315 3096.07 827.77 3077.56 846.225 3054.83 855.452 3027.88 855.452 3002.21 855.452 2979.94 846.321 2961.06 828.059 2942.18 809.797 2932.74 787.847 2932.74 762.208 2932.74 757.964 2932.88 754.735 2933.15 752.522 2933.43 750.308 2934.11 746.527 2935.21 741.179 2937.96 740.811 2945.85 744.307 2958.86 751.668 2966.93 756.268 2979.21 763.721 2995.71 774.025 3004.32 779.546 3013.03 785.066 3021.83 790.587L3024.3 788.931C3021.74 784.33 3008.63 774.854 2984.98 760.5 2969.77 751.484 2954.55 742.375 2939.34 733.174L2941.81 724.617C2949.15 728.85 2958.22 734.278 2969.03 740.903 2981.32 748.263 2990.39 753.692 2996.26 757.188 3006.52 763.26 3015.78 768.413 3024.03 772.645L3024.3 767.677C2997.72 750.932 2971.14 734.094 2944.56 717.165L2948.14 710.54C2950.15 710.908 2956.84 714.404 2968.21 721.029 2979.58 727.654 2990.12 733.91 2999.83 739.799 3007.35 744.583 3014.95 749.367 3022.65 754.152L3024.85 751.392 3024.3 749.183C3000.47 734.278 2976.73 719.281 2953.09 704.192L2956.11 698.395 2959.69 698.395 3022.65 735.934 3025.13 732.07C3018.9 725.445 3009 718.361 2995.43 710.816 2977.65 700.695 2967.02 694.439 2963.54 692.047L2969.32 686.526C2987.68 697.015 3006.13 707.412 3024.68 717.717L3024.95 712.58 2977.23 682.205 2977.78 679.664C2984.75 674.777 2992.72 671.11 3001.71 668.664 3010.69 666.219 3019.68 664.996 3028.67 664.996ZM2755.25 663.34C2771.93 663.34 2785.58 664.168 2796.22 665.824 2813.27 668.585 2826.37 673.277 2835.54 679.902 2847.27 688.55 2853.14 700.419 2853.14 715.509 2853.14 725.445 2850.75 734.094 2845.99 741.455 2841.95 747.527 2835.45 753.876 2826.46 760.5 2828.85 762.524 2831.78 764.641 2835.26 766.849 2844.61 772.921 2849.74 776.234 2850.66 776.786L2849.84 784.238C2846.38 783.318 2836.64 778.166 2820.63 768.781 2814.45 765.101 2799.25 755.716 2775.05 740.627 2756.86 729.218 2745.76 722.317 2741.76 719.925L2739.3 721.305 2739.3 727.102C2751 734.094 2762.71 740.995 2774.41 747.803 2796.9 761.052 2813.54 771.265 2824.33 778.442 2841.33 789.667 2849.84 796.843 2849.84 799.972 2849.84 800.708 2849.65 801.26 2849.29 801.628 2848.92 801.996 2848.37 801.996 2847.64 801.628 2829.72 791.139 2811.94 780.65 2794.29 770.161 2776.65 759.672 2758.68 748.723 2740.39 737.314L2739.3 744.491C2748.64 751.484 2760.45 759.304 2774.73 767.953 2785.9 774.761 2798.17 782.03 2811.54 789.759 2828.75 799.696 2841.02 806.964 2848.35 811.565L2849.84 819.293 2846.26 819.293C2837.9 814.325 2826.44 807.056 2811.88 797.487 2797.33 787.919 2785.69 780.466 2776.95 775.13 2763.13 766.849 2751.03 760.5 2740.66 756.084 2739.75 757.924 2739.3 759.212 2739.3 759.948 2739.3 760.5 2740.8 761.926 2743.82 764.227 2746.83 766.527 2748.61 767.861 2749.16 768.229 2757.56 774.117 2768.43 781.202 2781.77 789.483 2789.81 794.451 2800.86 801.168 2814.92 809.632 2833.37 820.673 2844.51 827.39 2848.35 829.782L2849.84 837.787 2847.91 837.787C2829.9 826.746 2811.98 816.027 2794.15 805.63 2776.33 795.233 2758.41 784.79 2740.4 774.301L2738.47 776.51 2739.3 780.926C2750.85 787.919 2762.4 794.819 2773.94 801.628 2792.09 812.485 2808.77 822.882 2823.99 832.818 2841.22 844.043 2849.84 850.668 2849.84 852.692L2848.35 855.452C2830.76 845.699 2819.49 839.719 2814.55 837.511 2807.95 834.567 2794.21 833.094 2773.33 833.094 2764.17 833.094 2750.16 832.818 2731.29 832.266 2712.43 831.714 2698.23 831.438 2688.7 831.438 2688.7 827.39 2688.52 820.443 2688.15 810.599 2687.79 800.754 2687.6 795.463 2687.6 794.727 2687.6 781.11 2687.88 765.101 2688.43 746.699 2689.71 703.824 2690.35 677.141 2690.35 666.652 2691.82 665.732 2701.44 664.95 2719.23 664.306 2737.01 663.662 2749.01 663.34 2755.25 663.34ZM3315.5 614.484C3327.78 614.484 3348.08 614.668 3376.4 615.036 3404.72 615.404 3419.8 615.588 3421.63 615.588L3422.46 616.692C3422.46 627.549 3422.87 643.927 3423.7 665.824 3424.52 687.722 3424.93 702.719 3424.93 710.816L3421.72 713.3 3401.89 713.3C3394.55 713.3 3388.49 713.438 3383.71 713.714 3378.94 713.99 3373.8 714.496 3368.29 715.233L3368.84 716.613 3424.93 750.563 3424.93 761.052 3420.26 761.052C3407.92 753.876 3395.57 746.607 3383.23 739.247 3369.42 731.15 3357.08 723.973 3346.21 717.717 3337 712.38 3324.56 705.388 3308.9 696.739L3306.97 700.603 3308.35 706.676C3347.21 729.862 3386.07 753.048 3424.93 776.234L3423.01 787.551 3308.9 722.685 3308.07 727.378C3308.07 732.162 3318.11 740.167 3338.18 751.392 3356.97 761.512 3375.76 771.541 3394.55 781.478 3414.81 792.887 3424.93 801.26 3424.93 806.596L3424.93 812.117 3420.65 811.901 3310.27 747.256 3308.35 755.812C3318.22 762.621 3331.02 770.718 3346.75 780.102 3359.74 787.828 3372.81 795.463 3385.98 803.008 3402.26 812.393 3415.24 820.305 3424.93 826.746L3424.93 834.474 3424.93 838.063C3412.22 831.254 3399.42 824.17 3386.53 816.809 3373.64 809.448 3360.84 801.996 3348.13 794.451 3331.19 784.698 3318.39 777.522 3309.73 772.921L3308.35 773.749 3308.07 778.442C3308.07 780.098 3316.78 786.446 3334.19 797.487 3342.44 802.64 3359.77 813.037 3386.16 828.678 3404.49 839.535 3416.59 846.804 3422.46 850.484L3421.72 851.864 3352.68 852.692C3318.39 852.692 3290.88 850.392 3270.16 845.791 3241.92 839.535 3220.46 828.402 3205.79 812.393 3188.55 793.623 3179.94 767.493 3179.94 734.002 3179.94 694.991 3193.13 664.904 3219.53 643.743 3243.73 624.237 3275.72 614.484 3315.5 614.484ZM2495.81 612C2519.83 612 2539.53 613.564 2554.93 616.692 2575.46 620.925 2591.14 628.101 2601.95 638.222 2614.78 650.367 2621.2 666.928 2621.2 687.906 2621.2 716.061 2610.48 736.486 2589.03 749.183 2571.61 759.488 2547.87 764.641 2517.81 764.641L2399.02 764.641 2396.27 762.156 2397.1 753.6 2517.54 752.772 2519.74 745.043C2518.64 744.307 2512.22 743.755 2500.49 743.387 2488.76 743.019 2476.29 742.835 2463.09 742.835 2449.89 742.835 2437.93 742.835 2427.21 742.835 2416.49 742.835 2407 742.835 2398.75 742.835L2396.82 741.459 2396.27 618.616C2397.92 616.963 2400.63 615.723 2404.39 614.896 2408.14 614.069 2411.95 613.656 2415.8 613.656 2418.18 613.656 2420.52 613.702 2422.81 613.794 2425.1 613.886 2427.35 613.932 2429.55 613.932 2436.51 613.932 2447.88 613.61 2463.64 612.966 2479.41 612.322 2490.13 612 2495.81 612Z" fill-rule="evenodd"/><path d="M3268.67 1120.57 3434.12 1121.12C3435.04 1121.66 3435.95 1121.94 3436.87 1121.94 3438.7 1121.76 3439.98 1121.66 3440.72 1121.66 3442.92 1121.66 3444.01 1123.22 3444.01 1126.33L3441.82 1130.18 3268.95 1130.18C3267.3 1130.18 3265.79 1129.76 3264.41 1128.94 3263.04 1128.12 3262.35 1126.97 3262.35 1125.51 3262.35 1124.23 3262.81 1123.08 3263.73 1122.08 3264.64 1121.07 3266.29 1120.57 3268.67 1120.57ZM2393.2 1115.07 2439.37 1115.07 2468.78 1115.07C2473.72 1115.07 2481.14 1115.17 2491.04 1115.35 2500.93 1115.53 2508.35 1115.62 2513.3 1115.62 2514.95 1117.27 2515.77 1119.28 2515.77 1121.66L2515.22 1124.41 2513.85 1125.78 2460.81 1126.61 2447.89 1126.61 2444.04 1126.61 2438.27 1126.61 2431.95 1126.61 2425.63 1126.61 2419.86 1126.61 2414.91 1126.61 2410.79 1126.61 2407.49 1126.61C2398.88 1126.61 2394.3 1126.33 2393.75 1125.78 2392.1 1124.68 2391.28 1123.04 2391.28 1120.84L2391.82 1115.9ZM3265.65 1103.82 3395.09 1103.82 3441.27 1103.82C3443.28 1106.27 3444.29 1108.34 3444.29 1110.04L3440.17 1112.87 3273.89 1113.15 3270.87 1113.15C3268.49 1113.15 3266.57 1112.88 3265.1 1112.33 3263.63 1111.78 3262.9 1110.68 3262.9 1109.03 3262.9 1105.56 3263.82 1103.82 3265.65 1103.82ZM2500.93 1092.56C2505.88 1092.56 2509.59 1092.93 2512.06 1093.66 2514.54 1094.39 2515.77 1096.04 2515.77 1098.6L2515.22 1103.27 2512.75 1104.37 2393.2 1104.37 2391 1099.97 2391.82 1094.76 2393.2 1093.38 2438.82 1093.38 2487.19 1093.38C2487.92 1093.38 2489.89 1093.25 2493.1 1092.97 2496.31 1092.7 2498.92 1092.56 2500.93 1092.56ZM3265.65 1086.24 3439.07 1086.24 3444.01 1089.74 3441.27 1095.58 3265.65 1095.3 3262.9 1092.01 3263.73 1087.07ZM2396.5 1071.14 2512.48 1072.24C2514.67 1073.89 2515.77 1075.72 2515.77 1077.73 2515.77 1081.03 2514.31 1082.67 2511.38 1082.67L2393.75 1082.67C2391.92 1082.67 2391 1081.3 2391 1078.56 2391 1077.46 2391.05 1076.13 2391.14 1074.57 2391.23 1073.02 2391.82 1072.24 2392.92 1072.24 2394.76 1072.24 2395.95 1071.87 2396.5 1071.14ZM3264.28 1068.67 3286.26 1068.67 3434.4 1068.67C3437.51 1068.67 3439.89 1068.95 3441.54 1069.52 3443.19 1070.08 3444.01 1071.67 3444.01 1074.3 3444.01 1076.93 3439.89 1078.52 3431.65 1079.08 3423.4 1079.65 3417.54 1079.93 3414.06 1079.93L3409.11 1079.93C3373.93 1079.93 3341.18 1079.61 3310.86 1078.97 3280.54 1078.33 3264.64 1077.55 3263.18 1076.63L3262.9 1071.14ZM2393.47 1050C2394.57 1050 2395.4 1050 2395.95 1050L2512.48 1050C2514.31 1050 2515.22 1051.74 2515.22 1055.22L2514.67 1059.34C2506.8 1059.34 2496.86 1059.56 2484.85 1060.02 2472.85 1060.48 2465.94 1060.71 2464.11 1060.71L2394.02 1060.71C2392.01 1060.71 2391 1059.52 2391 1057.14 2391.18 1055.13 2391.28 1053.02 2391.28 1050.82 2391.64 1050.27 2392.37 1050 2393.47 1050ZM3852.55 1007.44C3874.54 1007.44 3890.71 1007.62 3901.06 1007.99 3911.41 1008.36 3922.63 1009.64 3934.73 1011.83L3935 1014.58C3935 1016.78 3932.98 1018.38 3928.95 1019.38 3924.92 1020.39 3919.7 1020.89 3913.29 1020.89 3907.79 1020.89 3902.57 1020.76 3897.62 1020.48 3892.68 1020.21 3888.28 1019.89 3884.43 1019.52L3882.23 1022.54 3881.96 1128.53 3880.31 1130.18 3819.3 1130.18 3812.7 1130.18 3808.85 1130.18C3800.06 1130.18 3794.56 1130.08 3792.36 1129.9 3790.16 1129.72 3788.33 1129.26 3786.87 1128.53L3786.87 1119.47 3786.87 1111.23 3786.87 1104.64 3786.87 1098.87 3786.87 1093.38 3786.87 1088.44 3786.87 1084.32 3786.87 1081.03 3786.87 1077.73C3786.87 1074.62 3786.82 1071.51 3786.73 1068.4 3786.64 1065.28 3786.59 1062.08 3786.59 1058.79L3786.59 1056.32 3786.32 1020.62 3784.39 1018.97C3780.18 1018.97 3774.77 1019.2 3768.18 1019.66 3761.58 1020.12 3757.73 1020.35 3756.63 1020.35 3749.49 1020.35 3744.18 1019.84 3740.69 1018.84 3737.21 1017.83 3735.47 1016.14 3735.47 1013.76L3735.75 1011.01C3738.68 1009.91 3752.1 1009.04 3776.01 1008.4 3799.92 1007.76 3825.43 1007.44 3852.55 1007.44ZM3847.88 991.515C3857.41 991.515 3871.7 991.881 3890.75 992.613 3909.81 993.346 3924.19 993.712 3933.9 993.712L3935 997.556 3934.73 1000.85 3932.8 1001.95 3738.5 1001.13 3735.47 996.732 3735.2 995.359 3739.87 992.064C3751.78 992.064 3769.73 991.973 3793.74 991.79 3817.74 991.607 3835.79 991.515 3847.88 991.515ZM3157.23 975.864C3163.64 975.864 3173.35 976.23 3186.36 976.963 3199.37 977.695 3209.08 978.061 3215.49 978.061L3217.42 980.807C3216.68 987.946 3216.32 995.908 3216.32 1004.69 3216.32 1011.1 3216.41 1017.55 3216.59 1024.05 3216.78 1030.55 3216.96 1037 3217.14 1043.41 3217.14 1070.68 3211.65 1091 3200.65 1104.37 3188.38 1119.19 3168.95 1126.61 3142.39 1126.61L3136.62 1126.61C3115.73 1126.61 3100.11 1126.33 3089.76 1125.78 3079.41 1125.23 3073.31 1124.41 3071.48 1123.31L3071.48 1032.15C3072.76 1031.42 3074.5 1030.87 3076.7 1030.51 3078.9 1030.14 3080.83 1029.96 3082.47 1029.96 3086.51 1030.14 3089.44 1030.23 3091.27 1030.23 3095.67 1030.23 3098.19 1030.14 3098.83 1029.96 3099.47 1029.77 3100.89 1029.04 3103.09 1027.76 3103.09 1023.73 3103.09 1019.61 3103.09 1015.4 3103.09 1011.19 3103.18 1006.98 3103.36 1002.77 3103.36 996.915 3103.45 992.156 3103.64 988.495 3103.82 984.834 3104.37 980.898 3105.29 976.688ZM3919.06 974.217C3923.46 974.217 3927.21 974.537 3930.33 975.178 3933.44 975.819 3935 977.512 3935 980.258L3934.73 983.003 3932.25 984.651C3914.48 984.651 3899.36 984.788 3886.9 985.063 3874.45 985.337 3859.28 985.612 3841.42 985.886 3823.56 986.161 3811.05 986.298 3803.91 986.298L3782.74 986.298C3770.47 986.298 3761.63 986.161 3756.22 985.886 3750.82 985.612 3744.08 984.651 3736.02 983.003L3735.75 979.159 3736.85 975.315C3752.79 975.315 3771.93 975.269 3794.29 975.178 3816.64 975.086 3837.94 974.949 3858.18 974.766 3878.43 974.583 3898.72 974.4 3919.06 974.217ZM3803.91 957.193C3825.16 957.193 3841.19 957.285 3852 957.468 3905.69 958.383 3932.62 958.841 3932.8 958.841L3934.73 962.685 3934.18 966.254 3737.95 966.254 3735.75 961.861 3736.02 958.841 3737.95 957.742ZM3105.84 954.997 3147.61 954.997 3173.17 954.997C3188.38 954.997 3202.67 955.637 3216.04 956.919 3216.96 957.834 3217.42 959.115 3217.42 960.763L3217.42 965.43 3215.49 966.803 3107.21 966.254C3105.19 966.254 3104.19 964.698 3104.19 961.586 3104.19 958.108 3104.74 955.912 3105.84 954.997ZM3596.13 941.268C3605.84 941.268 3622.01 941.451 3644.64 941.817 3667.27 942.183 3679.32 942.366 3680.78 942.366L3681.61 942.915C3681.61 954.447 3681.93 969.137 3682.57 986.985 3683.21 1004.83 3683.53 1015.13 3683.53 1017.87L3681.33 1019.8 3670.48 1019.8C3665.09 1019.8 3659.85 1019.84 3654.75 1019.93 3649.64 1020.03 3644.12 1020.53 3638.18 1021.45L3638.45 1022.56 3683.51 1049.49 3683.53 1057.96 3679.96 1057.96C3661.52 1047.16 3651.66 1041.4 3650.37 1040.66 3640.42 1034.99 3630.55 1029.22 3620.78 1023.37 3610.65 1017.87 3600.6 1012.29 3590.65 1006.62L3589.26 1009.64 3590.36 1014.58C3600.62 1020.8 3610.93 1026.98 3621.28 1033.11 3631.63 1039.25 3642.03 1045.33 3652.47 1051.38 3664.93 1058.7 3675.28 1064.92 3683.53 1070.05L3681.88 1078.83 3590.64 1027.48 3590.09 1031.05C3590.09 1034.72 3598.1 1041.03 3614.13 1050 3629.07 1058.05 3644.09 1066.11 3659.21 1074.16 3675.42 1083.32 3683.53 1090 3683.53 1094.21L3683.53 1098.6 3679.98 1098.56 3591.72 1047.01 3590.36 1053.87C3597.49 1058.81 3607.72 1065.21 3621.05 1073.08 3621.78 1073.63 3632.2 1079.67 3652.29 1091.19 3665.08 1098.7 3675.49 1105.01 3683.53 1110.13L3683.53 1116.45 3683.53 1119.19C3652.75 1101.99 3622.06 1084.69 3591.47 1067.3L3590.36 1068.12 3590.09 1071.69C3590.09 1072.97 3597.05 1078.01 3610.97 1086.79 3623.98 1095.03 3637.72 1103.36 3652.2 1111.78 3671.07 1122.95 3680.87 1128.71 3681.61 1129.08L3681.33 1130.18 3626.21 1131C3598.46 1131 3576.41 1129.17 3560.06 1125.51 3537.46 1120.38 3520.28 1111.51 3508.52 1098.87 3494.74 1083.86 3487.85 1063 3487.85 1036.27 3487.85 1005.34 3498.39 981.447 3519.46 964.607 3538.88 949.047 3564.44 941.268 3596.13 941.268ZM3378.88 940.719 3408.01 940.719C3416.44 940.719 3425.88 941.175 3436.32 942.087L3437.14 943.177 3437.69 970.785 3437.14 998.667C3435.13 999.76 3424.04 1000.53 3403.89 1000.99 3383.74 1001.45 3367.34 1001.67 3354.69 1001.67L3358.82 1005.24 3408.29 1005.52 3409.94 1007.72 3410.76 1049.45 3412.96 1051.65 3442.37 1052.47C3442.73 1053.94 3443.19 1055.31 3443.74 1056.59L3443.19 1059.61 3441.27 1060.71 3280.77 1061.53C3278.38 1061.53 3275.54 1061.49 3272.25 1061.39 3268.95 1061.3 3265.74 1060.43 3262.63 1058.79L3263.18 943.19 3264.28 941.817C3281.86 941.817 3296.16 941.744 3307.15 941.598 3350.76 941.012 3374.67 940.719 3378.88 940.719ZM2954.64 940.719C2981.22 940.719 3003.72 949.76 3022.14 967.844 3040.56 985.927 3049.77 1008.28 3049.77 1034.9 3049.77 1061.7 3040.52 1084.28 3022.01 1102.64 3003.51 1121 2980.79 1130.18 2953.85 1130.18 2928.2 1130.18 2905.94 1121.09 2887.07 1102.93 2868.2 1084.76 2858.76 1062.93 2858.76 1037.42 2858.76 1033.2 2858.9 1029.99 2859.17 1027.79 2859.45 1025.58 2860.14 1021.82 2861.24 1016.5 2863.98 1016.14 2871.86 1019.61 2884.87 1026.94 2892.93 1031.51 2905.21 1038.93 2921.7 1049.18 2930.31 1054.67 2939.01 1060.16 2947.81 1065.65L2950.28 1064C2947.72 1059.43 2934.62 1050 2910.98 1035.72 2895.77 1026.75 2880.57 1017.69 2865.36 1008.54L2867.83 1000.03C2875.16 1004.24 2884.23 1009.64 2895.04 1016.23 2907.32 1023.55 2916.39 1028.95 2922.25 1032.43 2932.51 1038.47 2941.76 1043.59 2950.01 1047.8L2950.28 1042.86C2923.71 1026.2 2897.15 1009.45 2870.58 992.613L2874.15 986.024C2876.17 986.39 2882.86 989.868 2894.22 996.458 2905.58 1003.05 2916.11 1009.27 2925.82 1015.13 2933.33 1019.89 2940.94 1024.65 2948.63 1029.41L2950.83 1026.66 2950.28 1024.46C2926.46 1009.64 2902.74 994.719 2879.1 979.708L2882.12 973.942 2885.7 973.942 2948.63 1011.28 2951.11 1007.44C2944.88 1000.85 2934.98 993.803 2921.42 986.298 2903.65 976.23 2893.02 970.007 2889.54 967.627L2895.32 962.135C2913.67 972.569 2932.12 982.912 2950.65 993.163L2950.93 988.053 2903.23 957.837 2903.78 955.31C2910.74 950.448 2918.72 946.8 2927.7 944.367 2936.68 941.935 2945.66 940.719 2954.64 940.719ZM3811.6 940.169C3824.98 940.169 3845.13 940.444 3872.06 940.993 3899 941.542 3919.24 941.817 3932.8 941.817L3934.18 948.132 3933.35 948.956 3739.87 948.956 3735.75 945.112 3736.57 940.993ZM2715.71 939.071C2732.39 939.071 2746.04 939.895 2756.66 941.542 2773.7 944.288 2786.8 948.956 2795.96 955.546 2807.69 964.149 2813.55 975.956 2813.55 990.966 2813.55 1000.85 2811.17 1009.45 2806.41 1016.78 2802.38 1022.82 2795.87 1029.13 2786.89 1035.72 2789.28 1037.74 2792.21 1039.84 2795.69 1042.04 2805.03 1048.08 2810.16 1051.37 2811.08 1051.92L2810.25 1059.34C2806.8 1058.42 2797.07 1053.29 2781.07 1043.96 2774.88 1040.3 2759.7 1030.96 2735.51 1015.95 2717.32 1004.6 2706.23 997.739 2702.23 995.359L2699.77 996.732 2699.77 1002.5C2711.47 1009.45 2723.17 1016.32 2734.87 1023.09 2757.34 1036.27 2773.98 1046.43 2784.76 1053.57 2801.76 1064.74 2810.25 1071.87 2810.25 1074.99 2810.25 1075.72 2810.07 1076.27 2809.71 1076.63 2809.34 1077 2808.79 1077 2808.06 1076.63 2790.15 1066.2 2772.38 1055.77 2754.74 1045.33 2737.1 1034.9 2719.14 1024.01 2700.87 1012.66L2699.77 1019.8C2709.11 1026.75 2720.91 1034.53 2735.19 1043.14 2746.35 1049.91 2758.62 1057.14 2771.98 1064.83 2789.18 1074.71 2801.44 1081.94 2808.76 1086.52L2810.25 1094.21 2806.68 1094.21C2798.32 1089.26 2786.87 1082.03 2772.32 1072.52 2757.77 1063 2746.14 1055.58 2737.41 1050.27 2723.59 1042.04 2711.5 1035.72 2701.14 1031.33 2700.23 1033.16 2699.77 1034.44 2699.77 1035.17 2699.77 1035.72 2701.28 1037.14 2704.29 1039.43 2707.3 1041.72 2709.08 1043.04 2709.63 1043.41 2718.03 1049.27 2728.89 1056.32 2742.22 1064.55 2750.25 1069.49 2761.3 1076.18 2775.36 1084.6 2793.79 1095.58 2804.93 1102.26 2808.76 1104.64L2810.25 1112.6 2808.33 1112.6C2790.33 1101.62 2772.42 1090.96 2754.6 1080.62 2736.79 1070.27 2718.88 1059.88 2700.88 1049.45L2698.95 1051.65 2699.77 1056.04C2711.32 1063 2722.86 1069.86 2734.4 1076.63 2752.54 1087.43 2769.21 1097.78 2784.42 1107.66 2801.64 1118.83 2810.25 1125.42 2810.25 1127.43L2808.76 1130.18C2791.19 1120.47 2779.93 1114.53 2774.99 1112.33 2768.39 1109.4 2754.66 1107.94 2733.79 1107.94 2724.64 1107.94 2710.63 1107.66 2691.77 1107.11 2672.92 1106.56 2658.73 1106.29 2649.2 1106.29 2649.2 1102.26 2649.02 1095.35 2648.65 1085.56 2648.29 1075.76 2648.1 1070.5 2648.1 1069.77 2648.1 1056.22 2648.38 1040.3 2648.93 1021.99 2650.21 979.342 2650.85 952.8 2650.85 942.366 2652.32 941.451 2661.94 940.673 2679.71 940.032 2697.48 939.391 2709.48 939.071 2715.71 939.071ZM3199.55 932.756C3203.58 932.756 3207.2 933.03 3210.41 933.58 3213.61 934.129 3215.95 935.319 3217.42 937.149 3217.42 939.346 3217.42 941.085 3217.42 942.366 3217.05 943.098 3216.87 943.556 3216.87 943.739 3216.32 944.654 3215.86 945.295 3215.49 945.661L3105.84 944.013C3104.74 943.464 3104.19 942.183 3104.19 940.169L3105.01 934.678 3107.21 933.305ZM3105.01 912.712 3106.39 912.712 3215.49 912.712 3217.42 916.281C3217.42 918.295 3217.42 920.217 3217.42 922.047L3214.39 923.969 3105.29 922.047C3104.55 921.269 3104.19 919.811 3104.19 917.671ZM3108.31 889.922 3215.49 891.02C3216.59 891.935 3217.14 893.491 3217.14 895.688L3216.32 901.454C3212.84 901.454 3207.61 901.454 3200.65 901.454 3193.69 901.454 3188.47 901.454 3184.99 901.454 3175.09 901.454 3166.39 901.607 3158.88 901.911 3151.37 902.216 3144.4 902.521 3137.99 902.827 3123.88 902.827 3113.35 902.369 3106.39 901.454L3104.74 897.61 3105.01 892.393ZM2490.76 888C2514.77 888 2534.46 889.556 2549.85 892.668 2570.37 896.878 2586.04 904.017 2596.85 914.085 2609.67 926.166 2616.09 942.641 2616.09 963.508 2616.09 991.515 2605.37 1011.83 2583.93 1024.46 2566.53 1034.72 2542.8 1039.84 2512.75 1039.84L2394.02 1039.84 2391.28 1037.37 2392.1 1028.86 2512.48 1028.03 2514.67 1020.35C2513.57 1019.61 2507.16 1019.06 2495.44 1018.7 2483.71 1018.33 2471.25 1018.15 2458.06 1018.15 2444.87 1018.15 2432.91 1018.15 2422.19 1018.15 2411.48 1018.15 2401.99 1018.15 2393.75 1018.15L2391.82 1016.78 2391.28 894.581C2392.92 892.936 2395.63 891.703 2399.38 890.881 2403.14 890.058 2406.94 889.647 2410.79 889.647 2413.17 889.647 2415.51 889.693 2417.8 889.785 2420.09 889.876 2422.33 889.922 2424.53 889.922 2431.49 889.922 2442.85 889.602 2458.61 888.961 2474.37 888.32 2485.08 888 2490.76 888Z" fill-rule="evenodd"/></g></svg>