<svg width="774" height="633" xmlns="http://www.w3.org/2000/svg" xmlns:xlink="http://www.w3.org/1999/xlink" xml:space="preserve" overflow="hidden"><defs><clipPath id="clip0"><rect x="2200" y="431" width="774" height="633"/></clipPath></defs><g clip-path="url(#clip0)" transform="translate(-2200 -431)"><path d="M2234.92 693.485 2281.12 693.485 2310.55 693.485C2315.5 693.485 2322.92 693.577 2332.82 693.76 2342.72 693.944 2350.15 694.035 2355.1 694.035 2356.75 695.685 2357.57 697.702 2357.57 700.085L2357.02 702.835 2355.65 704.21 2302.57 705.035 2289.65 705.035 2285.8 705.035 2280.02 705.035 2273.7 705.035 2267.37 705.035 2261.6 705.035 2256.65 705.035 2252.52 705.035 2249.22 705.035C2240.61 705.035 2236.02 704.76 2235.47 704.21 2233.82 703.11 2233 701.46 2233 699.26L2233.55 694.31ZM2342.72 670.935C2347.67 670.935 2351.39 671.302 2353.86 672.035 2356.34 672.769 2357.57 674.419 2357.57 676.985L2357.02 681.66 2354.55 682.76 2234.92 682.76 2232.72 678.36 2233.55 673.135 2234.92 671.76 2280.57 671.76 2328.97 671.76C2329.71 671.76 2331.68 671.623 2334.89 671.348 2338.1 671.073 2340.71 670.935 2342.72 670.935ZM2238.22 649.485 2354.27 650.585C2356.47 652.235 2357.57 654.069 2357.57 656.085 2357.57 659.385 2356.11 661.035 2353.17 661.035L2235.47 661.035C2233.64 661.035 2232.72 659.66 2232.72 656.91 2232.72 655.81 2232.77 654.481 2232.86 652.923 2232.95 651.365 2233.55 650.585 2234.65 650.585 2236.48 650.585 2237.67 650.219 2238.22 649.485ZM2235.2 628.31C2236.3 628.31 2237.12 628.31 2237.67 628.31L2354.27 628.31C2356.11 628.31 2357.02 630.052 2357.02 633.535L2356.47 637.66C2348.59 637.66 2338.65 637.89 2326.64 638.348 2314.63 638.806 2307.71 639.035 2305.87 639.035L2235.75 639.035C2233.73 639.035 2232.72 637.844 2232.72 635.46 2232.91 633.444 2233 631.335 2233 629.135 2233.37 628.585 2234.1 628.31 2235.2 628.31ZM2828.84 518.86C2855.43 518.86 2877.94 527.916 2896.38 546.027 2914.81 564.139 2924.02 586.525 2924.02 613.185 2924.02 640.029 2914.77 662.645 2896.25 681.031 2877.73 699.417 2855 708.61 2828.05 708.61 2802.38 708.61 2780.11 699.513 2761.22 681.319 2742.34 663.124 2732.9 641.255 2732.9 615.712 2732.9 611.484 2733.04 608.267 2733.31 606.061 2733.59 603.855 2734.27 600.089 2735.37 594.76 2738.12 594.394 2746.01 597.877 2759.02 605.21 2767.09 609.794 2779.37 617.219 2795.87 627.485 2804.49 632.985 2813.2 638.485 2822 643.985L2824.47 642.335C2821.91 637.752 2808.8 628.31 2785.15 614.01 2769.93 605.027 2754.72 595.952 2739.5 586.785L2741.97 578.26C2749.31 582.477 2758.38 587.885 2769.2 594.485 2781.48 601.819 2790.56 607.227 2796.42 610.71 2806.69 616.76 2815.95 621.894 2824.2 626.11L2824.47 621.16C2797.89 604.477 2771.31 587.702 2744.72 570.835L2748.3 564.235C2750.32 564.602 2757.01 568.085 2768.37 574.685 2779.74 581.285 2790.28 587.519 2800 593.385 2807.52 598.152 2815.12 602.919 2822.82 607.685L2825.02 604.935 2824.47 602.735C2800.64 587.885 2776.9 572.944 2753.25 557.91L2756.27 552.135 2759.85 552.135 2822.82 589.535 2825.3 585.685C2819.07 579.085 2809.17 572.027 2795.6 564.51 2777.82 554.427 2767.18 548.194 2763.7 545.81L2769.48 540.31C2787.85 550.76 2806.3 561.119 2824.85 571.385L2825.12 566.268 2777.39 536.005 2777.94 533.474C2784.91 528.604 2792.89 524.951 2801.88 522.515 2810.86 520.078 2819.85 518.86 2828.84 518.86ZM2573.45 517.21C2590.13 517.21 2603.79 518.035 2614.42 519.685 2631.47 522.435 2644.58 527.11 2653.75 533.71 2665.48 542.327 2671.35 554.152 2671.35 569.185 2671.35 579.085 2668.97 587.702 2664.2 595.035 2660.17 601.085 2653.66 607.41 2644.67 614.01 2647.06 616.027 2649.99 618.135 2653.47 620.335 2662.82 626.385 2667.96 629.685 2668.87 630.235L2668.05 637.66C2664.59 636.744 2654.86 631.61 2638.84 622.26 2632.66 618.594 2617.46 609.244 2593.26 594.21 2575.06 582.844 2563.96 575.969 2559.96 573.585L2557.5 574.96 2557.5 580.735C2569.2 587.702 2580.91 594.577 2592.61 601.36 2615.11 614.56 2631.75 624.735 2642.54 631.885 2659.55 643.069 2668.05 650.219 2668.05 653.335 2668.05 654.069 2667.87 654.619 2667.5 654.985 2667.14 655.352 2666.59 655.352 2665.85 654.985 2647.93 644.535 2630.15 634.085 2612.5 623.635 2594.85 613.185 2576.88 602.277 2558.6 590.91L2557.5 598.06C2566.84 605.027 2578.65 612.819 2592.94 621.435 2604.11 628.219 2616.38 635.46 2629.75 643.16 2646.96 653.06 2659.23 660.302 2666.56 664.885L2668.05 672.585 2664.47 672.585C2656.11 667.635 2644.65 660.394 2630.09 650.86 2615.54 641.327 2603.89 633.902 2595.16 628.585 2581.33 620.335 2569.24 614.01 2558.87 609.61 2557.96 611.444 2557.5 612.727 2557.5 613.46 2557.5 614.01 2559.01 615.431 2562.02 617.723 2565.03 620.015 2566.82 621.344 2567.37 621.71 2575.77 627.577 2586.64 634.635 2599.97 642.885 2608.01 647.835 2619.06 654.527 2633.13 662.96 2651.58 673.96 2662.72 680.652 2666.56 683.035L2668.05 691.01 2666.12 691.01C2648.11 680.01 2630.19 669.331 2612.36 658.973 2594.54 648.615 2576.62 638.21 2558.6 627.76L2556.67 629.96 2557.5 634.36C2569.05 641.327 2580.6 648.202 2592.15 654.985 2610.3 665.802 2626.98 676.16 2642.2 686.06 2659.43 697.244 2668.05 703.844 2668.05 705.86L2666.56 708.61C2648.97 698.894 2637.7 692.935 2632.76 690.735 2626.16 687.802 2612.42 686.335 2591.54 686.335 2582.38 686.335 2568.36 686.06 2549.49 685.51 2530.63 684.96 2516.43 684.685 2506.9 684.685 2506.9 680.652 2506.72 673.731 2506.35 663.923 2505.98 654.115 2505.8 648.844 2505.8 648.11 2505.8 634.544 2506.07 618.594 2506.62 600.26 2507.91 557.544 2508.55 530.96 2508.55 520.51 2510.02 519.594 2519.64 518.815 2537.42 518.173 2555.21 517.531 2567.22 517.21 2573.45 517.21ZM2332.55 466.06C2356.57 466.06 2376.27 467.619 2391.67 470.735 2412.21 474.952 2427.88 482.102 2438.7 492.185 2451.53 504.285 2457.95 520.785 2457.95 541.685 2457.95 569.735 2447.22 590.085 2425.77 602.735 2408.36 613.002 2384.62 618.135 2354.55 618.135L2235.75 618.135 2233 615.66 2233.82 607.135 2354.27 606.31 2356.47 598.61C2355.37 597.877 2348.96 597.327 2337.22 596.96 2325.49 596.594 2313.02 596.41 2299.82 596.41 2286.62 596.41 2274.66 596.41 2263.94 596.41 2253.21 596.41 2243.72 596.41 2235.47 596.41L2233.55 595.04 2233 472.652C2234.65 471.005 2237.35 469.769 2241.11 468.946 2244.87 468.122 2248.67 467.71 2252.52 467.71 2254.91 467.71 2257.25 467.756 2259.54 467.848 2261.83 467.94 2264.07 467.985 2266.27 467.985 2273.24 467.985 2284.61 467.665 2300.37 467.023 2316.14 466.381 2326.87 466.06 2332.55 466.06Z" stroke="#000000" stroke-width="3" stroke-linejoin="round" stroke-miterlimit="10" fill="#FFFFFF" fill-rule="evenodd"/><text fill="#000000" fill-opacity="0" font-family="Arial,Arial_MSFontService,sans-serif" font-size="242.55" x="2232.72" y="678.292">Pro</text><path d="M2755.17 902.21C2756.28 902.571 2757.47 902.842 2758.76 903.022L2882.74 978.175C2888.61 981.463 2892.92 983.931 2895.67 985.578 2904.67 990.694 2911.64 995.172 2916.6 999.01L2916.6 1002.59 2915.77 1006.16 2887.35 989.557C2880.94 988.4 2873.56 987.532 2865.23 986.953 2856.89 986.375 2849.24 986.085 2842.28 986.085 2833.31 986.085 2815.45 986.727 2788.7 988.01 2773.49 988.744 2762.87 989.11 2756.82 989.11L2754.35 985.535 2754.35 940.71ZM2755.17 885.16 2761.76 887.36C2770.73 890.477 2785.46 898.177 2805.96 910.46 2821.7 919.81 2840.37 931.635 2861.97 945.935 2878.81 956.935 2893.26 966.744 2905.34 975.36 2906.99 976.46 2909 977.835 2911.38 979.485 2914.86 982.052 2916.6 983.794 2916.6 984.71L2915.77 987.46 2913.85 987.46C2911.65 986.177 2894.91 976.369 2863.61 958.035 2831.03 938.969 2807.06 924.669 2791.69 915.135 2767.16 899.919 2754.9 891.302 2754.9 889.285ZM2756.55 867.56C2765.88 871.227 2781.62 879.752 2803.76 893.135 2818.95 902.302 2839.45 915.227 2865.26 931.91 2894.91 951.16 2911.75 961.977 2915.77 964.36L2915.77 970.135 2913.85 970.135 2756 876.085 2754.62 871.135ZM2755.17 850.51C2761.77 852.894 2776.81 860.869 2800.27 874.435 2817.32 884.335 2839.6 897.81 2867.1 914.86 2888.37 928.06 2904.22 938.144 2914.67 945.11L2916.6 948.96 2915.77 953.085C2905.87 949.419 2889.92 941.169 2867.92 928.335 2854.17 920.269 2833.92 907.802 2807.15 890.935 2782.03 874.985 2765.26 864.535 2756.82 859.585L2754.62 855.735ZM2755.17 833.185C2773.32 843.452 2791.47 853.719 2809.62 863.985 2837.49 879.752 2855.64 890.202 2864.07 895.335 2880.39 905.052 2897.9 916.419 2916.6 929.435L2916.6 935.485 2913.85 935.485C2897.72 926.135 2881.58 916.785 2865.45 907.435 2840.88 893.319 2824.66 883.877 2816.77 879.11 2800.27 869.21 2784.32 859.219 2768.92 849.135 2765.62 847.119 2763.24 845.56 2761.77 844.46 2757.01 841.16 2754.62 839.052 2754.62 838.135ZM2755.72 815.86 2757.64 815.86 2835.2 862.335 2837.94 860.685 2838.22 828.235 2839.31 827.135 2915.77 827.41C2916.69 830.894 2917.38 835.248 2917.84 840.473 2918.3 845.698 2918.52 850.785 2918.52 855.735 2918.52 859.402 2918.43 864.673 2918.25 871.548 2918.07 878.423 2917.97 883.327 2917.97 886.26L2917.97 890.385C2917.97 898.819 2917.52 908.26 2916.6 918.71 2914.95 918.894 2901.38 911.54 2875.9 896.65 2860.5 887.644 2836.12 872.847 2802.75 852.259 2775.62 835.53 2759.67 825.511 2754.9 822.203ZM2618.84 815.86C2645.43 815.86 2667.94 824.916 2686.38 843.027 2704.81 861.139 2714.02 883.525 2714.02 910.185 2714.02 937.029 2704.77 959.645 2686.25 978.031 2667.73 996.417 2645 1005.61 2618.05 1005.61 2592.38 1005.61 2570.11 996.513 2551.22 978.319 2532.34 960.124 2522.9 938.255 2522.9 912.712 2522.9 908.484 2523.04 905.267 2523.31 903.061 2523.59 900.855 2524.27 897.089 2525.37 891.76 2528.12 891.394 2536.01 894.877 2549.02 902.21 2557.09 906.794 2569.37 914.219 2585.87 924.485 2594.49 929.985 2603.2 935.485 2612 940.985L2614.47 939.335C2611.91 934.752 2598.8 925.31 2575.15 911.01 2559.93 902.027 2544.72 892.952 2529.5 883.785L2531.97 875.26C2539.31 879.477 2548.38 884.885 2559.2 891.485 2571.48 898.819 2580.56 904.227 2586.42 907.71 2596.69 913.76 2605.95 918.894 2614.2 923.11L2614.47 918.16C2587.89 901.477 2561.31 884.702 2534.72 867.835L2538.3 861.235C2540.32 861.602 2547.01 865.085 2558.37 871.685 2569.74 878.285 2580.28 884.519 2590 890.385 2597.52 895.152 2605.12 899.919 2612.82 904.685L2615.02 901.935 2614.47 899.735C2590.64 884.885 2566.9 869.944 2543.25 854.91L2546.27 849.135 2549.85 849.135 2612.82 886.535 2615.3 882.685C2609.07 876.085 2599.17 869.027 2585.6 861.51 2567.82 851.427 2557.18 845.194 2553.7 842.81L2559.48 837.31C2577.85 847.76 2596.3 858.119 2614.85 868.385L2615.12 863.268 2567.39 833.005 2567.94 830.474C2574.91 825.604 2582.89 821.951 2591.88 819.515 2600.86 817.078 2609.85 815.86 2618.84 815.86ZM2368.57 765.535C2380.86 765.535 2401.16 765.719 2429.49 766.085 2457.81 766.452 2472.89 766.635 2474.72 766.635L2475.55 767.735C2475.55 778.552 2475.96 794.869 2476.79 816.685 2477.61 838.502 2478.02 853.444 2478.02 861.51L2474.81 863.985 2454.98 863.985C2447.64 863.985 2441.58 864.123 2436.8 864.398 2432.03 864.673 2426.88 865.177 2421.37 865.91L2421.93 867.285 2478.02 901.11 2478.02 911.56 2473.35 911.56C2461.01 904.41 2448.66 897.169 2436.32 889.835 2422.5 881.769 2410.16 874.619 2399.29 868.385 2390.08 863.069 2377.64 856.102 2361.98 847.485L2360.05 851.335 2361.42 857.385C2400.29 880.485 2439.16 903.585 2478.02 926.685L2476.1 937.96 2361.97 873.335 2361.15 878.01C2361.15 882.777 2371.19 890.752 2391.26 901.935 2410.05 912.019 2428.85 922.01 2447.64 931.91 2467.9 943.277 2478.02 951.619 2478.02 956.935L2478.02 962.435 2473.75 962.221 2363.35 897.815 2361.42 906.34C2371.3 913.123 2384.1 921.19 2399.83 930.54 2412.82 938.237 2425.9 945.844 2439.06 953.36 2455.34 962.71 2468.33 970.594 2478.02 977.01L2478.02 984.71 2478.02 988.285C2465.31 981.502 2452.51 974.444 2439.62 967.11 2426.73 959.777 2413.92 952.352 2401.21 944.835 2384.27 935.119 2371.47 927.969 2362.81 923.385L2361.42 924.21 2361.15 928.885C2361.15 930.535 2369.86 936.86 2387.27 947.86 2395.52 952.994 2412.85 963.352 2439.25 978.935 2457.58 989.752 2469.68 996.994 2475.55 1000.66L2474.81 1002.04 2405.76 1002.86C2371.47 1002.86 2343.96 1000.57 2323.23 995.985 2294.99 989.752 2273.53 978.66 2258.86 962.71 2241.62 944.01 2233 917.977 2233 884.61 2233 845.744 2246.2 815.769 2272.6 794.685 2296.8 775.252 2328.79 765.535 2368.57 765.535Z" stroke="#FFFFFF" stroke-width="3" stroke-linejoin="round" stroke-miterlimit="10" fill-rule="evenodd"/><text fill="#000000" fill-opacity="0" font-family="Arial,Arial_MSFontService,sans-serif" font-size="240.621" x="2233" y="976.078">Con</text></g></svg>