<svg width="693" height="540" xmlns="http://www.w3.org/2000/svg" xmlns:xlink="http://www.w3.org/1999/xlink" xml:space="preserve" overflow="hidden"><defs><clipPath id="clip0"><rect x="265" y="1273" width="693" height="540"/></clipPath></defs><g clip-path="url(#clip0)" transform="translate(-265 -1273)"><path d="M267.198 1499.91 313.362 1499.91 342.763 1499.91C347.709 1499.91 355.129 1500 365.021 1500.18 374.913 1500.37 382.332 1500.46 387.278 1500.46 388.927 1502.1 389.751 1504.12 389.751 1506.49L389.201 1509.24 387.828 1510.61 334.795 1511.43 321.88 1511.43 318.033 1511.43 312.263 1511.43 305.943 1511.43 299.623 1511.43 293.852 1511.43 288.906 1511.43 284.784 1511.43 281.487 1511.43C272.877 1511.43 268.297 1511.16 267.748 1510.61 266.099 1509.51 265.275 1507.87 265.275 1505.67L265.824 1500.73ZM374.913 1477.41C379.859 1477.41 383.568 1477.78 386.041 1478.51 388.514 1479.24 389.751 1480.89 389.751 1483.45L389.201 1488.11 386.728 1489.21 267.198 1489.21 265 1484.82 265.824 1479.61 267.198 1478.23 312.812 1478.23 361.174 1478.23C361.906 1478.23 363.876 1478.1 367.082 1477.82 370.287 1477.55 372.898 1477.41 374.913 1477.41ZM270.496 1456.01 386.454 1457.11C388.652 1458.75 389.751 1460.58 389.751 1462.59 389.751 1465.89 388.286 1467.53 385.354 1467.53L267.748 1467.53C265.916 1467.53 265 1466.16 265 1463.42 265 1462.32 265.046 1460.99 265.137 1459.44 265.229 1457.88 265.824 1457.11 266.923 1457.11 268.755 1457.11 269.946 1456.74 270.496 1456.01ZM267.473 1434.88C268.572 1434.88 269.397 1434.88 269.946 1434.88L386.454 1434.88C388.286 1434.88 389.201 1436.62 389.201 1440.1L388.652 1444.21C380.775 1444.21 370.837 1444.44 358.838 1444.9 346.839 1445.35 339.924 1445.58 338.092 1445.58L268.023 1445.58C266.008 1445.58 265 1444.39 265 1442.02 265.183 1440 265.275 1437.9 265.275 1435.71 265.641 1435.16 266.374 1434.88 267.473 1434.88ZM862.891 1325.68C889.462 1325.68 911.956 1334.72 930.374 1352.79 948.791 1370.86 958 1393.19 958 1419.79 958 1446.57 948.749 1469.14 930.247 1487.48 911.745 1505.83 889.03 1515 862.101 1515 836.455 1515 814.198 1505.92 795.329 1487.77 776.461 1469.62 767.027 1447.8 767.027 1422.31 767.027 1418.09 767.164 1414.88 767.439 1412.68 767.714 1410.48 768.401 1406.72 769.5 1401.41 772.247 1401.04 780.125 1404.52 793.131 1411.83 801.191 1416.41 813.465 1423.82 829.952 1434.06 838.562 1439.55 847.263 1445.03 856.056 1450.52L858.529 1448.88C855.964 1444.3 842.866 1434.88 819.235 1420.61 804.031 1411.65 788.826 1402.6 773.621 1393.45L776.094 1384.95C783.422 1389.15 792.49 1394.55 803.298 1401.13 815.571 1408.45 824.639 1413.85 830.501 1417.32 840.76 1423.36 850.011 1428.48 858.254 1432.69L858.529 1427.75C831.967 1411.1 805.405 1394.37 778.842 1377.54L782.414 1370.95C784.429 1371.32 791.116 1374.79 802.474 1381.38 813.831 1387.96 824.364 1394.18 834.073 1400.04 841.584 1404.79 849.186 1409.55 856.88 1414.3L859.078 1411.56 858.529 1409.36C834.715 1394.55 810.992 1379.64 787.36 1364.64L790.383 1358.88 793.955 1358.88 856.88 1396.19 859.353 1392.35C853.125 1385.77 843.233 1378.73 829.677 1371.23 811.908 1361.17 801.283 1354.95 797.802 1352.57L803.581 1347.08C821.929 1357.51 840.369 1367.84 858.903 1378.09L859.177 1372.98 811.485 1342.79 812.035 1340.26C818.999 1335.4 826.97 1331.76 835.95 1329.33 844.929 1326.9 853.909 1325.68 862.891 1325.68ZM606.829 1324.03C623.499 1324.03 637.146 1324.86 647.771 1326.5 664.808 1329.25 677.906 1333.91 687.065 1340.5 698.789 1349.09 704.651 1360.89 704.651 1375.89 704.651 1385.77 702.27 1394.37 697.507 1401.68 693.477 1407.72 686.973 1414.03 677.997 1420.61 680.379 1422.63 683.31 1424.73 686.79 1426.93 696.133 1432.96 701.262 1436.25 702.178 1436.8L701.354 1444.21C697.899 1443.3 688.171 1438.17 672.171 1428.85 665.988 1425.19 650.805 1415.86 626.622 1400.86 608.437 1389.52 597.346 1382.66 593.347 1380.28L590.891 1381.65 590.891 1387.41C602.587 1394.37 614.282 1401.23 625.978 1407.99 648.452 1421.16 665.081 1431.32 675.864 1438.45 692.857 1449.61 701.354 1456.74 701.354 1459.85 701.354 1460.58 701.171 1461.13 700.806 1461.5 700.441 1461.86 699.893 1461.86 699.16 1461.5 681.253 1451.07 663.482 1440.64 645.848 1430.22 628.213 1419.79 610.259 1408.91 591.986 1397.57L590.891 1404.7C600.225 1411.65 612.028 1419.43 626.3 1428.02 637.463 1434.79 649.723 1442.02 663.082 1449.7 680.284 1459.58 692.545 1466.8 699.864 1471.37L701.354 1479.06 697.782 1479.06C689.421 1474.12 677.969 1466.89 663.425 1457.38 648.882 1447.87 637.247 1440.46 628.519 1435.16 614.706 1426.93 602.618 1420.61 592.257 1416.22 591.346 1418.05 590.891 1419.33 590.891 1420.07 590.891 1420.61 592.397 1422.03 595.408 1424.32 598.419 1426.6 600.2 1427.93 600.749 1428.3 609.145 1434.15 620.005 1441.19 633.332 1449.42 641.364 1454.36 652.407 1461.04 666.461 1469.45 684.897 1480.43 696.031 1487.1 699.864 1489.48L701.354 1497.44 699.426 1497.44C681.428 1486.46 663.523 1475.81 645.71 1465.47 627.898 1455.14 609.993 1444.76 591.995 1434.33L590.067 1436.53 590.891 1440.92C602.432 1447.87 613.973 1454.73 625.514 1461.5 643.65 1472.29 660.32 1482.62 675.524 1492.5 692.744 1503.66 701.354 1510.24 701.354 1512.26L699.864 1515C682.289 1505.31 671.032 1499.36 666.091 1497.17 659.5 1494.24 645.771 1492.78 624.904 1492.78 615.75 1492.78 601.747 1492.5 582.893 1491.95 564.038 1491.4 549.852 1491.13 540.332 1491.13 540.332 1487.1 540.148 1480.2 539.782 1470.41 539.416 1460.63 539.232 1455.37 539.232 1454.64 539.232 1441.1 539.507 1425.19 540.057 1406.9 541.339 1364.28 541.98 1337.75 541.98 1327.33 543.446 1326.41 553.063 1325.63 570.832 1324.99 588.602 1324.35 600.6 1324.03 606.829 1324.03ZM364.746 1273C388.743 1273 408.436 1274.55 423.824 1277.66 444.341 1281.87 460.004 1289.01 470.812 1299.07 483.635 1311.14 490.046 1327.6 490.046 1348.45 490.046 1376.44 479.33 1396.74 457.897 1409.36 440.494 1419.61 416.771 1424.73 386.728 1424.73L268.023 1424.73 265.275 1422.26 266.099 1413.76 386.454 1412.93 388.652 1405.25C387.553 1404.52 381.141 1403.97 369.417 1403.6 357.693 1403.24 345.236 1403.05 332.047 1403.05 318.857 1403.05 306.904 1403.05 296.188 1403.05 285.471 1403.05 275.991 1403.05 267.748 1403.05L265.824 1401.69 265.275 1279.58C266.923 1277.93 269.626 1276.7 273.381 1275.88 277.136 1275.06 280.937 1274.65 284.784 1274.65 287.166 1274.65 289.501 1274.69 291.791 1274.78 294.081 1274.87 296.325 1274.92 298.523 1274.92 305.485 1274.92 316.842 1274.6 332.596 1273.96 348.351 1273.32 359.067 1273 364.746 1273Z" fill="#C55A11" fill-rule="evenodd"/><path d="M787.745 1709.32C788.848 1709.68 790.041 1709.95 791.327 1710.13L915.232 1785.09C921.101 1788.37 925.412 1790.83 928.163 1792.48 937.152 1797.58 944.123 1802.04 949.076 1805.87L949.076 1809.44 948.252 1813 919.84 1796.44C913.433 1795.29 906.064 1794.42 897.733 1793.85 889.402 1793.27 881.758 1792.98 874.801 1792.98 865.831 1792.98 847.981 1793.62 821.25 1794.9 806.054 1795.63 795.435 1796 789.394 1796L786.921 1792.43 786.921 1747.72ZM787.745 1692.32 794.329 1694.51C803.293 1697.62 818.018 1705.3 838.505 1717.55 854.234 1726.88 872.891 1738.67 894.478 1752.93 911.306 1763.91 925.755 1773.69 937.825 1782.28 939.471 1783.38 941.484 1784.75 943.863 1786.4 947.339 1788.96 949.076 1790.7 949.076 1791.61L948.252 1794.35 946.328 1794.35C944.132 1793.07 927.395 1783.29 896.118 1765 863.561 1745.99 839.6 1731.72 824.235 1722.21 799.725 1707.04 787.47 1698.44 787.47 1696.43ZM789.115 1674.76C798.446 1678.42 814.176 1686.92 836.306 1700.27 851.488 1709.41 871.975 1722.31 897.767 1738.95 927.398 1758.15 944.227 1768.93 948.252 1771.31L948.252 1777.07 946.328 1777.07 788.57 1683.26 787.196 1678.33ZM787.745 1657.76C794.341 1660.13 809.366 1668.09 832.819 1681.62 849.859 1691.49 872.121 1704.93 899.605 1721.94 920.859 1735.11 936.708 1745.16 947.152 1752.11L949.076 1755.95 948.252 1760.07C938.358 1756.41 922.417 1748.18 900.43 1735.38 886.688 1727.33 866.441 1714.9 839.69 1698.08 814.588 1682.17 797.823 1671.74 789.394 1666.81L787.196 1662.97ZM787.745 1640.48C805.885 1650.72 824.024 1660.96 842.164 1671.2 870.014 1686.92 888.153 1697.35 896.582 1702.47 912.889 1712.16 930.387 1723.49 949.076 1736.48L949.076 1742.51 946.328 1742.51C930.204 1733.19 914.08 1723.86 897.956 1714.53 873.404 1700.45 857.188 1691.04 849.309 1686.28 832.819 1676.41 816.878 1666.44 801.487 1656.38 798.189 1654.37 795.807 1652.82 794.341 1651.72 789.578 1648.43 787.196 1646.33 787.196 1645.41ZM788.291 1623.2 790.21 1623.2 867.724 1669.55 870.464 1667.9 870.738 1635.54 871.833 1634.44 948.252 1634.72C949.168 1638.19 949.855 1642.53 950.313 1647.74 950.771 1652.96 951 1658.03 951 1662.97 951 1666.62 950.909 1671.88 950.725 1678.74 950.542 1685.6 950.45 1690.49 950.45 1693.41L950.45 1697.53C950.45 1705.94 949.992 1715.36 949.076 1725.78 947.427 1725.96 933.868 1718.63 908.4 1703.78 893.009 1694.79 868.64 1680.03 835.293 1659.5 808.175 1642.81 792.234 1632.82 787.47 1629.52ZM649.741 1623.2C676.318 1623.2 698.817 1632.23 717.238 1650.29 735.66 1668.36 744.87 1690.69 744.87 1717.28 744.87 1744.05 735.617 1766.61 717.111 1784.95 698.606 1803.29 675.885 1812.46 648.951 1812.46 623.3 1812.46 601.037 1803.38 582.165 1785.23 563.293 1767.09 553.857 1745.27 553.857 1719.8 553.857 1715.58 553.994 1712.37 554.269 1710.17 554.544 1707.97 555.231 1704.21 556.33 1698.9 559.079 1698.53 566.957 1702.01 579.966 1709.32 588.028 1713.89 600.305 1721.3 616.795 1731.54 625.407 1737.03 634.11 1742.51 642.905 1748L645.378 1746.35C642.813 1741.78 629.712 1732.36 606.076 1718.1 590.868 1709.14 575.661 1700.09 560.453 1690.94L562.926 1682.44C570.255 1686.65 579.325 1692.04 590.135 1698.63 602.412 1705.94 611.481 1711.33 617.345 1714.81 627.605 1720.84 636.858 1725.96 645.104 1730.17L645.378 1725.23C618.81 1708.59 592.243 1691.86 565.675 1675.04L569.248 1668.45C571.263 1668.82 577.951 1672.29 589.311 1678.88 600.671 1685.46 611.207 1691.68 620.918 1697.53 628.43 1702.28 636.034 1707.04 643.729 1711.79L645.928 1709.05 645.378 1706.85C621.559 1692.04 597.831 1677.14 574.195 1662.14L577.218 1656.38 580.791 1656.38 643.729 1693.69 646.203 1689.85C639.973 1683.26 630.079 1676.22 616.52 1668.73 598.747 1658.67 588.12 1652.45 584.639 1650.08L590.419 1644.59C608.77 1655.01 627.215 1665.34 645.752 1675.58L646.027 1670.48 598.325 1640.3 598.875 1637.77C605.84 1632.91 613.813 1629.27 622.794 1626.84 631.775 1624.41 640.758 1623.2 649.741 1623.2ZM400.496 1573C412.772 1573 433.065 1573.18 461.373 1573.55 489.682 1573.91 504.752 1574.1 506.584 1574.1L507.409 1575.19C507.409 1585.98 507.821 1602.26 508.646 1624.02 509.47 1645.78 509.882 1660.68 509.882 1668.73L506.674 1671.2 486.852 1671.2C479.511 1671.2 473.455 1671.33 468.682 1671.61 463.91 1671.88 458.771 1672.38 453.265 1673.12L453.819 1674.49 509.882 1708.23 509.882 1718.65 505.21 1718.65C492.874 1711.52 480.538 1704.29 468.201 1696.98 454.393 1688.93 442.057 1681.8 431.192 1675.58 421.988 1670.28 409.56 1663.33 393.909 1654.74L391.976 1658.58 393.35 1664.61C432.194 1687.65 471.038 1710.69 509.882 1733.73L507.958 1744.98 393.9 1680.52 393.075 1685.18C393.075 1689.94 403.106 1697.89 423.166 1709.05 441.95 1719.11 460.733 1729.07 479.517 1738.95 499.76 1750.28 509.882 1758.6 509.882 1763.91L509.882 1769.39 505.605 1769.18 395.274 1704.94 393.35 1713.44C403.222 1720.21 416.017 1728.25 431.738 1737.58 444.715 1745.26 457.785 1752.84 470.945 1760.34 487.215 1769.67 500.194 1777.53 509.882 1783.93L509.882 1791.61 509.882 1795.18C497.179 1788.41 484.385 1781.37 471.499 1774.05 458.613 1766.74 445.819 1759.33 433.116 1751.84 416.179 1742.15 403.385 1735.01 394.733 1730.44L393.35 1731.27 393.075 1735.93C393.075 1737.57 401.779 1743.88 419.185 1754.85 427.43 1759.97 444.745 1770.31 471.13 1785.85 489.453 1796.64 501.545 1803.86 507.409 1807.52L506.674 1808.89 437.664 1809.71C403.389 1809.71 375.895 1807.43 355.182 1802.86 326.954 1796.64 305.508 1785.58 290.844 1769.67 273.615 1751.01 265 1725.05 265 1691.77 265 1653 278.192 1623.1 304.577 1602.07 328.763 1582.69 360.736 1573 400.496 1573Z" fill="#2F5597" fill-rule="evenodd"/></g></svg>