<svg width="1545" height="684" xmlns="http://www.w3.org/2000/svg" xmlns:xlink="http://www.w3.org/1999/xlink" xml:space="preserve" overflow="hidden"><defs><clipPath id="clip0"><rect x="297" y="343" width="1545" height="684"/></clipPath></defs><g clip-path="url(#clip0)" transform="translate(-297 -343)"><path d="M1026.04 403.696C1018.85 406.582 1014.21 408.627 1012.12 409.83 1008.36 411.947 1005.67 414.16 1004.06 416.47 1002.44 418.779 1001.63 421.305 1001.63 424.047 1001.63 427.512 1002.65 430.387 1004.7 432.672 1006.74 434.957 1009.1 436.1 1011.76 436.1 1015.38 436.1 1020.14 433.694 1026.04 428.883ZM679.352 403.696C672.168 406.582 667.53 408.627 665.436 409.83 661.678 411.947 658.99 414.16 657.372 416.47 655.755 418.779 654.946 421.305 654.946 424.047 654.946 427.512 655.969 430.387 658.015 432.672 660.06 434.957 662.415 436.1 665.08 436.1 668.695 436.1 673.453 433.694 679.352 428.883ZM1655.03 380.096C1651.08 380.096 1647.55 381.647 1644.43 384.751 1641.32 387.854 1639.5 392.172 1638.97 397.705L1669.23 397.705C1668.99 393.471 1668.49 390.488 1667.73 388.756 1666.54 386.062 1664.77 383.945 1662.42 382.405 1660.06 380.866 1657.6 380.096 1655.03 380.096ZM1358.64 379.735C1356.12 379.735 1353.59 380.493 1351.04 382.008 1348.5 383.524 1346.44 386.182 1344.87 389.983 1343.3 393.784 1342.51 398.667 1342.51 404.634 1342.51 414.257 1344.41 422.556 1348.19 429.532 1351.97 436.509 1356.95 439.997 1363.14 439.997 1367.75 439.997 1371.56 438.073 1374.56 434.224 1377.55 430.375 1379.05 423.759 1379.05 414.377 1379.05 402.637 1376.55 393.399 1371.56 386.663 1368.18 382.044 1363.88 379.735 1358.64 379.735ZM489.054 376.992 519.526 376.992 519.526 379.663 518.027 379.663C515.886 379.663 514.281 380.132 513.211 381.07 512.14 382.008 511.605 383.175 511.605 384.57 511.605 386.447 512.39 389.045 513.96 392.365L529.874 425.707 544.503 389.189C545.312 387.217 545.716 385.268 545.716 383.343 545.716 382.477 545.55 381.828 545.216 381.395 544.836 380.866 544.241 380.444 543.433 380.132 542.624 379.819 541.197 379.663 539.151 379.663L539.151 376.992 560.417 376.992 560.417 379.663C558.657 379.855 557.301 380.24 556.349 380.818 555.398 381.395 554.351 382.477 553.209 384.065 552.781 384.739 551.972 386.591 550.783 389.622L524.165 455.586C521.595 461.985 518.23 466.82 514.067 470.093 509.904 473.364 505.896 475 502.042 475 499.235 475 496.928 474.182 495.12 472.546 493.312 470.91 492.408 469.034 492.408 466.917 492.408 464.896 493.062 463.272 494.371 462.045 495.679 460.818 497.475 460.205 499.759 460.205 501.329 460.205 503.47 460.734 506.181 461.793 508.084 462.515 509.274 462.875 509.75 462.875 511.177 462.875 512.735 462.129 514.424 460.638 516.113 459.146 517.813 456.26 519.526 451.978L524.165 440.503 500.686 390.633C499.973 389.141 498.831 387.289 497.261 385.076 496.072 383.392 495.096 382.261 494.335 381.683 493.241 380.914 491.481 380.24 489.054 379.663ZM1790.12 375.044 1793.19 375.044 1793.19 389.045C1800.85 379.711 1808.15 375.044 1815.1 375.044 1818.66 375.044 1821.73 375.946 1824.3 377.75 1826.87 379.555 1828.92 382.526 1830.44 386.663 1831.49 389.55 1832.01 393.977 1832.01 399.942L1832.01 428.161C1832.01 432.347 1832.34 435.186 1833.01 436.677 1833.53 437.88 1834.38 438.818 1835.54 439.492 1836.71 440.166 1838.86 440.503 1842 440.503L1842 443.101 1809.67 443.101 1809.67 440.503 1811.03 440.503C1814.07 440.503 1816.2 440.033 1817.42 439.095 1818.63 438.157 1819.47 436.774 1819.95 434.945 1820.14 434.224 1820.23 431.962 1820.23 428.161L1820.23 401.097C1820.23 395.083 1819.46 390.717 1817.92 387.998 1816.37 385.28 1813.76 383.921 1810.1 383.921 1804.44 383.921 1798.8 387.048 1793.19 393.303L1793.19 428.161C1793.19 432.636 1793.45 435.402 1793.97 436.461 1794.64 437.856 1795.55 438.879 1796.72 439.528 1797.89 440.178 1800.25 440.503 1803.82 440.503L1803.82 443.101 1771.49 443.101 1771.49 440.503 1772.92 440.503C1776.25 440.503 1778.5 439.648 1779.66 437.94 1780.83 436.232 1781.41 432.973 1781.41 428.161L1781.41 403.623C1781.41 395.685 1781.23 390.849 1780.88 389.117 1780.52 387.385 1779.97 386.206 1779.24 385.581 1778.5 384.955 1777.51 384.642 1776.28 384.642 1774.94 384.642 1773.35 385.003 1771.49 385.725L1770.42 383.127ZM1507.64 375.044C1510.21 375.044 1513.32 375.597 1516.99 376.704 1519.41 377.425 1521.03 377.786 1521.84 377.786 1522.6 377.786 1523.2 377.618 1523.62 377.281 1524.05 376.944 1524.55 376.198 1525.12 375.044L1527.48 375.044 1527.48 397.561 1525.12 397.561C1523.32 390.488 1521 385.677 1518.17 383.127 1515.33 380.577 1511.73 379.302 1507.35 379.302 1504.02 379.302 1501.34 380.192 1499.29 381.972 1497.24 383.752 1496.22 385.725 1496.22 387.89 1496.22 390.585 1496.98 392.894 1498.5 394.818 1499.98 396.791 1502.98 398.884 1507.5 401.097L1517.92 406.221C1527.57 410.985 1532.4 417.263 1532.4 425.058 1532.4 431.072 1530.15 435.919 1525.66 439.6 1521.16 443.281 1516.13 445.121 1510.57 445.121 1506.57 445.121 1502 444.4 1496.86 442.956 1495.29 442.475 1494.01 442.234 1493.01 442.234 1491.92 442.234 1491.06 442.86 1490.44 444.111L1488.09 444.111 1488.09 420.511 1490.44 420.511C1491.77 427.247 1494.32 432.323 1498.08 435.739 1501.84 439.155 1506.05 440.863 1510.71 440.863 1513.99 440.863 1516.67 439.889 1518.74 437.94 1520.81 435.992 1521.84 433.646 1521.84 430.904 1521.84 427.584 1520.69 424.793 1518.38 422.532 1516.07 420.271 1511.47 417.408 1504.57 413.944 1497.67 410.48 1493.15 407.352 1491.01 404.562 1488.87 401.819 1487.8 398.355 1487.8 394.169 1487.8 388.732 1489.64 384.185 1493.33 380.529 1497.02 376.872 1501.79 375.044 1507.64 375.044ZM1360.85 375.044C1370.75 375.044 1378.7 378.845 1384.69 386.447 1389.78 392.942 1392.33 400.4 1392.33 408.82 1392.33 414.738 1390.92 420.728 1388.11 426.79 1385.31 432.852 1381.44 437.423 1376.52 440.503 1371.59 443.582 1366.11 445.121 1360.07 445.121 1350.22 445.121 1342.4 441.152 1336.59 433.213 1331.69 426.526 1329.24 419.02 1329.24 410.696 1329.24 404.634 1330.73 398.608 1333.7 392.617 1336.67 386.627 1340.59 382.201 1345.44 379.338 1350.29 376.475 1355.43 375.044 1360.85 375.044ZM1016.04 375.044C1021.85 375.044 1026.61 376.03 1030.32 378.003 1033.12 379.494 1035.19 381.828 1036.53 385.003 1037.38 387.072 1037.81 391.306 1037.81 397.705L1037.81 420.15C1037.81 426.453 1037.93 430.314 1038.17 431.734 1038.41 433.153 1038.8 434.103 1039.34 434.585 1039.89 435.066 1040.52 435.306 1041.24 435.306 1042 435.306 1042.66 435.138 1043.23 434.801 1044.23 434.175 1046.16 432.419 1049.01 429.532L1049.01 433.574C1043.69 440.791 1038.6 444.4 1033.74 444.4 1031.41 444.4 1029.56 443.582 1028.18 441.946 1026.8 440.31 1026.08 437.519 1026.04 433.574 1019.33 438.818 1015.12 441.85 1013.4 442.667 1010.84 443.87 1008.1 444.472 1005.2 444.472 1000.68 444.472 996.955 442.908 994.029 439.781 991.103 436.654 989.64 432.54 989.64 427.44 989.64 424.216 990.354 421.425 991.781 419.068 993.732 415.796 997.122 412.717 1001.95 409.83 1006.78 406.943 1014.81 403.431 1026.04 399.293L1026.04 396.695C1026.04 390.103 1025 385.581 1022.93 383.127 1020.86 380.673 1017.85 379.446 1013.9 379.446 1010.91 379.446 1008.53 380.264 1006.77 381.9 1004.96 383.536 1004.06 385.412 1004.06 387.529L1004.2 391.715C1004.2 393.928 1003.64 395.637 1002.52 396.839 1001.4 398.042 999.94 398.644 998.133 398.644 996.372 398.644 994.933 398.018 993.815 396.767 992.697 395.516 992.138 393.808 992.138 391.643 992.138 387.505 994.231 383.704 998.418 380.24 1002.6 376.776 1008.48 375.044 1016.04 375.044ZM811.606 375.044 814.674 375.044 814.674 389.117C819.432 384.306 822.239 381.539 823.095 380.818 825.236 378.989 827.543 377.57 830.017 376.559 832.491 375.549 834.941 375.044 837.367 375.044 841.459 375.044 844.979 376.247 847.929 378.652 850.879 381.058 852.853 384.546 853.852 389.117 858.752 383.343 862.891 379.555 866.269 377.75 869.647 375.946 873.12 375.044 876.688 375.044 880.161 375.044 883.242 375.946 885.93 377.75 888.618 379.555 890.747 382.501 892.317 386.591 893.363 389.382 893.887 393.76 893.887 399.726L893.887 428.161C893.887 432.299 894.196 435.138 894.814 436.677 895.29 437.736 896.17 438.638 897.455 439.384 898.739 440.129 900.833 440.503 903.735 440.503L903.735 443.101 871.479 443.101 871.479 440.503 872.835 440.503C875.641 440.503 877.83 439.949 879.4 438.843 880.494 438.073 881.279 436.846 881.755 435.162 881.945 434.344 882.041 432.01 882.041 428.161L882.041 399.726C882.041 394.337 881.398 390.536 880.114 388.323 878.258 385.244 875.285 383.704 871.193 383.704 868.672 383.704 866.139 384.342 863.593 385.617 861.048 386.892 857.967 389.261 854.352 392.726L854.209 393.519 854.352 396.623 854.352 428.161C854.352 432.684 854.601 435.499 855.101 436.605 855.6 437.712 856.54 438.638 857.92 439.384 859.299 440.129 861.655 440.503 864.985 440.503L864.985 443.101 831.944 443.101 831.944 440.503C835.56 440.503 838.045 440.07 839.401 439.203 840.757 438.337 841.697 437.038 842.22 435.306 842.458 434.488 842.577 432.107 842.577 428.161L842.577 399.726C842.577 394.337 841.792 390.464 840.222 388.107 838.128 385.028 835.203 383.488 831.444 383.488 828.875 383.488 826.33 384.185 823.809 385.581 819.86 387.698 816.815 390.079 814.674 392.726L814.674 428.161C814.674 432.492 814.971 435.306 815.566 436.605 816.161 437.904 817.041 438.879 818.207 439.528 819.372 440.178 821.739 440.503 825.307 440.503L825.307 443.101 792.98 443.101 792.98 440.503C795.977 440.503 798.07 440.178 799.26 439.528 800.449 438.879 801.353 437.844 801.971 436.425 802.59 435.005 802.899 432.251 802.899 428.161L802.899 402.902C802.899 395.637 802.685 390.945 802.257 388.828 801.924 387.241 801.4 386.146 800.687 385.545 799.973 384.943 798.998 384.642 797.761 384.642 796.429 384.642 794.835 385.003 792.98 385.725L791.909 383.127ZM669.361 375.044C675.165 375.044 679.923 376.03 683.634 378.003 686.441 379.494 688.51 381.828 689.842 385.003 690.699 387.072 691.127 391.306 691.127 397.705L691.127 420.15C691.127 426.453 691.246 430.314 691.484 431.734 691.722 433.153 692.114 434.103 692.661 434.585 693.208 435.066 693.839 435.306 694.552 435.306 695.314 435.306 695.979 435.138 696.55 434.801 697.549 434.175 699.476 432.419 702.331 429.532L702.331 433.574C697.002 440.791 691.912 444.4 687.059 444.4 684.728 444.4 682.872 443.582 681.493 441.946 680.113 440.31 679.399 437.519 679.352 433.574 672.644 438.818 668.434 441.85 666.721 442.667 664.152 443.87 661.416 444.472 658.514 444.472 653.995 444.472 650.272 442.908 647.346 439.781 644.42 436.654 642.957 432.54 642.957 427.44 642.957 424.216 643.671 421.425 645.098 419.068 647.048 415.796 650.438 412.717 655.267 409.83 660.096 406.943 668.125 403.431 679.352 399.293L679.352 396.695C679.352 390.103 678.317 385.581 676.248 383.127 674.178 380.673 671.169 379.446 667.22 379.446 664.223 379.446 661.845 380.264 660.084 381.9 658.276 383.536 657.372 385.412 657.372 387.529L657.515 391.715C657.515 393.928 656.956 395.637 655.838 396.839 654.72 398.042 653.257 398.644 651.449 398.644 649.689 398.644 648.25 398.018 647.132 396.767 646.014 395.516 645.455 393.808 645.455 391.643 645.455 387.505 647.548 383.704 651.735 380.24 655.921 376.776 661.797 375.044 669.361 375.044ZM1659.03 374.972C1666.35 374.972 1672.37 377.413 1677.08 382.297 1681.79 387.181 1684.15 393.712 1684.15 401.891L1638.97 401.891C1638.93 411.706 1641.28 419.404 1646.04 424.986 1650.8 430.567 1656.39 433.358 1662.81 433.358 1667.09 433.358 1670.81 432.167 1673.98 429.785 1677.14 427.404 1679.79 423.326 1681.93 417.552L1684.15 418.996C1683.15 425.587 1680.24 431.589 1675.44 437.002 1670.63 442.415 1664.62 445.121 1657.38 445.121 1649.53 445.121 1642.82 442.03 1637.22 435.847 1631.63 429.665 1628.84 421.353 1628.84 410.913 1628.84 399.606 1631.71 390.789 1637.44 384.462 1643.17 378.135 1650.37 374.972 1659.03 374.972ZM349.957 348.268C341.298 348.268 334.352 351.516 329.119 358.011 322.601 366.095 319.342 377.931 319.342 393.519 319.342 409.493 322.72 421.786 329.476 430.398 334.661 436.942 341.512 440.214 350.028 440.214 359.115 440.214 366.62 436.629 372.543 429.46 378.466 422.291 381.428 410.985 381.428 395.54 381.428 378.797 378.169 366.311 371.651 358.084 366.418 351.54 359.186 348.268 349.957 348.268ZM1136.41 345.237 1177.65 345.237 1177.65 347.908 1174.37 347.908C1172.14 347.908 1169.97 348.461 1167.88 349.568 1166.4 350.337 1165.38 351.492 1164.81 353.032 1164.24 354.572 1163.95 357.747 1163.95 362.558L1163.95 392.509C1164.9 391.595 1168.16 388.54 1173.73 383.343 1187.86 370.257 1196.4 361.524 1199.35 357.146 1200.63 355.221 1201.28 353.537 1201.28 352.093 1201.28 350.987 1200.78 350.013 1199.78 349.171 1198.78 348.329 1197.09 347.908 1194.71 347.908L1192.5 347.908 1192.5 345.237 1228.04 345.237 1228.04 347.908C1225.94 347.956 1224.04 348.244 1222.33 348.774 1220.61 349.303 1218.52 350.325 1216.05 351.841 1213.57 353.356 1210.53 355.798 1206.91 359.166 1205.87 360.129 1201.04 365.06 1192.43 373.961L1177.65 388.828 1213.34 424.697C1219.19 430.615 1224.18 434.645 1228.32 436.786 1232.46 438.927 1236.6 440.142 1240.74 440.43L1240.74 443.101 1194.71 443.101 1194.71 440.43C1197.47 440.43 1199.46 439.961 1200.67 439.023 1201.88 438.085 1202.49 437.038 1202.49 435.883 1202.49 434.729 1202.26 433.694 1201.81 432.78 1201.36 431.866 1199.87 430.158 1197.35 427.656L1163.95 394.241 1163.95 425.78C1163.95 430.736 1164.26 434.007 1164.88 435.595 1165.36 436.798 1166.36 437.832 1167.88 438.698 1169.92 439.853 1172.09 440.43 1174.37 440.43L1177.65 440.43 1177.65 443.101 1136.41 443.101 1136.41 440.43 1139.83 440.43C1143.83 440.43 1146.73 439.251 1148.54 436.894 1149.68 435.354 1150.25 431.65 1150.25 425.78L1150.25 362.558C1150.25 357.602 1149.94 354.307 1149.32 352.671 1148.85 351.516 1147.87 350.506 1146.4 349.64 1144.3 348.485 1142.12 347.908 1139.83 347.908L1136.41 347.908ZM351.312 343C363.872 343 374.755 347.824 383.961 357.47 393.167 367.117 397.77 379.158 397.77 393.591 397.77 408.459 393.131 420.8 383.854 430.615 374.577 440.43 363.349 445.338 350.171 445.338 336.85 445.338 325.657 440.551 316.595 430.976 307.532 421.401 303 409.012 303 393.808 303 378.267 308.233 365.589 318.7 355.774 327.787 347.258 338.658 343 351.312 343Z" fill="#548235" fill-rule="evenodd"/><path d="M305.2 735.336 351.394 735.336 380.816 735.336C385.765 735.336 393.19 735.427 403.089 735.61 412.987 735.794 420.411 735.885 425.361 735.885 427.011 737.535 427.836 739.551 427.836 741.933L427.286 744.682 425.911 746.056 372.842 746.881 359.918 746.881 356.069 746.881 350.294 746.881 343.97 746.881 337.646 746.881 331.872 746.881 326.922 746.881 322.798 746.881 319.498 746.881C310.882 746.881 306.299 746.606 305.75 746.056 304.1 744.957 303.275 743.307 303.275 741.108L303.825 736.16ZM412.987 712.794C417.937 712.794 421.649 713.161 424.124 713.894 426.598 714.627 427.836 716.276 427.836 718.842L427.286 723.515 424.811 724.615 305.2 724.615 303 720.217 303.825 714.994 305.2 713.619 350.844 713.619 399.239 713.619C399.972 713.619 401.943 713.482 405.151 713.207 408.359 712.932 410.971 712.794 412.987 712.794ZM308.499 691.353 424.536 692.452C426.736 694.102 427.836 695.934 427.836 697.95 427.836 701.249 426.369 702.898 423.436 702.898L305.75 702.898C303.916 702.898 303 701.524 303 698.775 303 697.675 303.046 696.347 303.137 694.789 303.229 693.231 303.825 692.452 304.925 692.452 306.758 692.452 307.949 692.086 308.499 691.353ZM305.475 670.186C306.574 670.186 307.399 670.186 307.949 670.186L424.536 670.186C426.369 670.186 427.286 671.927 427.286 675.409L426.736 679.533C418.853 679.533 408.909 679.762 396.902 680.22 384.895 680.678 377.975 680.907 376.142 680.907L306.025 680.907C304.008 680.907 303 679.716 303 677.333 303.183 675.318 303.275 673.21 303.275 671.011 303.641 670.461 304.375 670.186 305.475 670.186ZM1678.67 647.095C1679.77 647.456 1680.97 647.727 1682.25 647.907L1806.22 723.03C1812.09 726.317 1816.4 728.784 1819.15 730.43 1828.15 735.545 1835.12 740.02 1840.08 743.857L1840.08 747.431 1839.25 751 1810.83 734.408C1804.42 733.251 1797.04 732.384 1788.71 731.805 1780.37 731.227 1772.73 730.937 1765.77 730.937 1756.79 730.937 1738.93 731.579 1712.19 732.862 1696.99 733.595 1686.36 733.961 1680.32 733.961L1677.84 730.388 1677.84 685.58ZM1678.67 630.052 1685.26 632.251C1694.22 635.367 1708.96 643.064 1729.45 655.342 1745.19 664.688 1763.85 676.509 1785.45 690.803 1802.29 701.799 1816.74 711.603 1828.82 720.217 1830.47 721.316 1832.48 722.691 1834.86 724.34 1838.34 726.906 1840.08 728.647 1840.08 729.563L1839.25 732.312 1837.33 732.312C1835.13 731.029 1818.38 721.224 1787.09 702.898 1754.52 683.839 1730.55 669.545 1715.18 660.015 1690.65 644.805 1678.39 636.191 1678.39 634.175ZM1680.04 612.459C1689.37 616.124 1705.11 624.646 1727.25 638.024 1742.44 647.187 1762.94 660.107 1788.74 676.784 1818.39 696.026 1835.22 706.839 1839.25 709.221L1839.25 714.994 1837.33 714.994 1679.49 620.981 1678.12 616.033ZM1678.67 595.416C1685.27 597.798 1700.3 605.77 1723.76 619.331 1740.81 629.227 1763.08 642.697 1790.58 659.74 1811.85 672.935 1827.7 683.015 1838.15 689.978L1840.08 693.827 1839.25 697.95C1829.35 694.285 1813.4 686.038 1791.41 673.21 1777.66 665.147 1757.4 652.685 1730.64 635.825 1705.52 619.881 1688.75 609.435 1680.32 604.487L1678.12 600.639ZM1678.67 578.097C1696.82 588.36 1714.96 598.623 1733.11 608.885 1760.98 624.646 1779.12 635.092 1787.56 640.223 1803.87 649.936 1821.38 661.298 1840.08 674.31L1840.08 680.357 1837.33 680.357C1821.19 671.011 1805.06 661.665 1788.93 652.318 1764.37 638.207 1748.14 628.769 1740.26 624.004 1723.76 614.108 1707.82 604.121 1692.42 594.041 1689.12 592.025 1686.73 590.468 1685.27 589.368 1680.5 586.069 1678.12 583.962 1678.12 583.046ZM1679.21 560.779 1681.13 560.779 1758.68 607.236 1761.43 605.587 1761.7 573.149 1762.8 572.05 1839.25 572.325C1840.17 575.807 1840.85 580.159 1841.31 585.382 1841.77 590.605 1842 595.691 1842 600.639 1842 604.304 1841.91 609.573 1841.73 616.445 1841.54 623.317 1841.45 628.219 1841.45 631.152L1841.45 635.275C1841.45 643.705 1840.99 653.143 1840.08 663.589 1838.43 663.772 1824.86 656.422 1799.38 641.537 1783.98 632.535 1759.6 617.744 1726.24 597.164 1699.11 580.441 1683.16 570.426 1678.39 567.119ZM1506.23 560.779C1532.82 560.779 1555.33 569.832 1573.76 587.935 1592.19 606.04 1601.4 628.417 1601.4 655.067 1601.4 681.901 1592.15 704.507 1573.63 722.886 1555.12 741.265 1532.39 750.455 1505.44 750.455 1479.77 750.455 1457.5 741.361 1438.62 723.174 1419.74 704.987 1410.3 683.126 1410.3 657.593 1410.3 653.366 1410.44 650.151 1410.71 647.946 1410.99 645.741 1411.67 641.976 1412.77 636.649 1415.52 636.283 1423.41 639.765 1436.42 647.095 1444.49 651.677 1456.77 659.099 1473.27 669.362 1481.88 674.859 1490.59 680.357 1499.39 685.855L1501.86 684.206C1499.3 679.624 1486.19 670.186 1462.54 655.892 1447.33 646.912 1432.11 637.841 1416.9 628.678L1419.37 620.156C1426.71 624.371 1435.78 629.777 1446.6 636.375 1458.88 643.705 1467.95 649.111 1473.82 652.593 1484.08 658.641 1493.34 663.772 1501.59 667.987L1501.86 663.039C1475.28 646.362 1448.7 629.594 1422.12 612.734L1425.7 606.136C1427.71 606.503 1434.4 609.985 1445.77 616.582 1457.14 623.18 1467.68 629.411 1477.39 635.275 1484.91 640.04 1492.51 644.805 1500.21 649.569L1502.41 646.82 1501.86 644.621C1478.03 629.777 1454.29 614.841 1430.65 599.814L1433.67 594.041 1437.25 594.041 1500.21 631.427 1502.69 627.578C1496.46 620.981 1486.56 613.925 1472.99 606.411 1455.21 596.332 1444.58 590.101 1441.1 587.719L1446.88 582.221C1465.24 592.667 1483.69 603.021 1502.24 613.284L1502.51 608.168 1454.79 577.917 1455.34 575.387C1462.31 570.52 1470.28 566.868 1479.27 564.432 1488.25 561.997 1497.24 560.779 1506.23 560.779ZM935.669 560.779C962.258 560.779 984.767 569.832 1003.2 587.935 1021.63 606.04 1030.84 628.417 1030.84 655.067 1030.84 681.901 1021.58 704.507 1003.07 722.886 984.556 741.265 961.825 750.455 934.878 750.455 909.214 750.455 886.942 741.361 868.061 723.174 849.18 704.987 839.739 683.126 839.739 657.593 839.739 653.366 839.876 650.151 840.151 647.946 840.426 645.741 841.114 641.976 842.214 636.649 844.963 636.283 852.846 639.765 865.861 647.095 873.927 651.677 886.209 659.099 902.707 669.362 911.323 674.859 920.03 680.357 928.829 685.855L931.303 684.206C928.737 679.624 915.63 670.186 891.983 655.892 876.768 646.912 861.553 637.841 846.338 628.678L848.813 620.156C856.145 624.371 865.219 629.777 876.035 636.375 888.317 643.705 897.391 649.111 903.257 652.593 913.522 658.641 922.78 663.772 931.029 667.987L931.303 663.039C904.723 646.362 878.143 629.594 851.563 612.734L855.137 606.136C857.154 606.503 863.844 609.985 875.21 616.582 886.575 623.18 897.116 629.411 906.831 635.275 914.347 640.04 921.955 644.805 929.654 649.569L931.854 646.82 931.303 644.621C907.473 629.777 883.734 614.841 860.087 599.814L863.111 594.041 866.686 594.041 929.654 631.427 932.128 627.578C925.896 620.981 915.997 613.925 902.432 606.411 884.651 596.332 874.018 590.101 870.535 587.719L876.318 582.221C894.678 592.667 913.131 603.021 931.677 613.284L931.952 608.168 884.228 577.917 884.778 575.387C891.747 570.52 899.724 566.868 908.709 564.432 917.694 561.997 926.681 560.779 935.669 560.779ZM662.247 559.13C678.928 559.13 692.585 559.955 703.217 561.604 720.265 564.353 733.372 569.026 742.537 575.623 754.269 584.237 760.135 596.057 760.135 611.084 760.135 620.981 757.752 629.594 752.986 636.924 748.953 642.972 742.446 649.294 733.464 655.892 735.847 657.908 738.78 660.015 742.263 662.214 751.611 668.262 756.744 671.561 757.661 672.11L756.836 679.533C753.379 678.616 743.645 673.485 727.634 664.139 721.447 660.473 706.253 651.127 682.053 636.1 663.856 624.737 652.757 617.865 648.756 615.483L646.298 616.857 646.298 622.63C658.002 629.594 669.705 636.466 681.409 643.247 703.899 656.442 720.539 666.613 731.328 673.76 748.333 684.939 756.836 692.086 756.836 695.201 756.836 695.934 756.653 696.484 756.288 696.851 755.923 697.217 755.374 697.217 754.64 696.851 736.722 686.405 718.939 675.959 701.292 665.513 683.645 655.067 665.679 644.163 647.394 632.801L646.298 639.948C655.639 646.912 667.45 654.701 681.731 663.314 692.901 670.095 705.171 677.333 718.538 685.03 735.752 694.927 748.021 702.165 755.345 706.747L756.836 714.444 753.261 714.444C744.895 709.496 733.435 702.257 718.882 692.727 704.328 683.198 692.685 675.776 683.952 670.461 670.129 662.214 658.033 655.892 647.665 651.494 646.754 653.326 646.298 654.609 646.298 655.342 646.298 655.892 647.805 657.312 650.818 659.603 653.832 661.894 655.613 663.222 656.163 663.589 664.564 669.453 675.432 676.509 688.768 684.755 696.805 689.704 707.856 696.393 721.919 704.823 740.368 715.818 751.51 722.507 755.345 724.89L756.836 732.862 754.907 732.862C736.896 721.866 718.979 711.191 701.155 700.837 683.33 690.482 665.413 680.082 647.403 669.636L645.474 671.836 646.298 676.234C657.847 683.198 669.396 690.07 680.944 696.851 699.092 707.663 715.774 718.017 730.989 727.914 748.22 739.092 756.836 745.69 756.836 747.706L755.345 750.455C737.758 740.742 726.493 734.786 721.55 732.587 714.953 729.654 701.215 728.188 680.335 728.188 671.174 728.188 657.161 727.914 638.294 727.364 619.428 726.814 605.231 726.539 595.704 726.539 595.704 722.507 595.521 715.589 595.154 705.785 594.788 695.98 594.604 690.711 594.604 689.978 594.604 676.417 594.879 660.473 595.429 642.147 596.712 599.447 597.354 572.875 597.354 562.429 598.82 561.512 608.444 560.733 626.226 560.092 644.007 559.451 656.014 559.13 662.247 559.13ZM1222.5 510.474C1234.78 510.474 1255.08 510.657 1283.4 511.024 1311.72 511.39 1326.8 511.574 1328.63 511.574L1329.46 512.673C1329.46 523.486 1329.87 539.796 1330.7 561.604 1331.52 583.412 1331.93 598.348 1331.93 606.411L1328.72 608.885 1308.89 608.885C1301.55 608.885 1295.49 609.023 1290.71 609.298 1285.94 609.573 1280.8 610.077 1275.29 610.81L1275.84 612.184 1331.93 645.996 1331.93 656.442 1327.26 656.442C1314.92 649.294 1302.57 642.056 1290.23 634.725 1276.42 626.662 1264.08 619.515 1253.21 613.284 1244 607.969 1231.56 601.005 1215.9 592.392L1213.97 596.24 1215.35 602.288C1254.21 625.379 1293.07 648.47 1331.93 671.561L1330.01 682.831 1215.9 618.232 1215.07 622.905C1215.07 627.67 1225.11 635.641 1245.18 646.82 1263.97 656.9 1282.76 666.888 1301.55 676.784 1321.81 688.146 1331.93 696.484 1331.93 701.799L1331.93 707.297 1327.65 707.082 1217.27 642.701 1215.35 651.223C1225.22 658.004 1238.02 666.067 1253.75 675.414 1266.74 683.108 1279.81 690.711 1292.98 698.225 1309.26 707.572 1322.24 715.452 1331.93 721.866L1331.93 729.563 1331.93 733.136C1319.22 726.356 1306.42 719.3 1293.53 711.97 1280.64 704.639 1267.84 697.217 1255.13 689.704 1238.19 679.991 1225.39 672.844 1216.73 668.262L1215.35 669.087 1215.07 673.76C1215.07 675.409 1223.78 681.732 1241.19 692.727 1249.44 697.859 1266.77 708.213 1293.16 723.79 1311.49 734.603 1323.59 741.841 1329.46 745.507L1328.72 746.881 1259.68 747.706C1225.39 747.706 1197.88 745.415 1177.16 740.833 1148.92 734.603 1127.46 723.515 1112.79 707.572 1095.55 688.879 1086.94 662.856 1086.94 629.502 1086.94 590.651 1100.13 560.688 1126.53 539.613 1150.73 520.187 1182.72 510.474 1222.5 510.474ZM402.814 508C426.827 508 446.534 509.558 461.932 512.673 482.463 516.888 498.136 524.035 508.951 534.115 521.783 546.21 528.199 562.704 528.199 583.595 528.199 611.634 517.476 631.976 496.028 644.621 478.613 654.884 454.874 660.015 424.811 660.015L306.025 660.015 303.275 657.541 304.1 649.02 424.536 648.195 426.736 640.498C425.636 639.765 419.22 639.215 407.488 638.849 395.756 638.482 383.291 638.299 370.092 638.299 356.894 638.299 344.933 638.299 334.209 638.299 323.485 638.299 313.999 638.299 305.75 638.299L303.825 636.929 303.275 514.589C304.925 512.942 307.628 511.707 311.386 510.884 315.144 510.061 318.948 509.649 322.798 509.649 325.181 509.649 327.518 509.695 329.809 509.787 332.101 509.878 334.346 509.924 336.546 509.924 343.512 509.924 354.877 509.604 370.642 508.962 386.407 508.321 397.131 508 402.814 508Z" fill="#C55A11" fill-rule="evenodd"/><path d="M1175.24 1016.52 1340.8 1017.07C1341.71 1017.63 1342.63 1017.9 1343.55 1017.9 1345.38 1017.72 1346.66 1017.63 1347.4 1017.63 1349.6 1017.63 1350.7 1019.19 1350.7 1022.31L1348.5 1026.17 1175.52 1026.17C1173.87 1026.17 1172.35 1025.76 1170.98 1024.93 1169.6 1024.11 1168.92 1022.96 1168.92 1021.49 1168.92 1020.2 1169.37 1019.05 1170.29 1018.04 1171.21 1017.03 1172.86 1016.52 1175.24 1016.52ZM299.2 1011.01 345.402 1011.01 374.828 1011.01C379.778 1011.01 387.203 1011.1 397.103 1011.28 407.004 1011.47 414.429 1011.56 419.379 1011.56 421.029 1013.21 421.854 1015.24 421.854 1017.63L421.304 1020.38 419.929 1021.76 366.852 1022.59 353.927 1022.59 350.077 1022.59 344.302 1022.59 337.976 1022.59 331.651 1022.59 325.876 1022.59 320.926 1022.59 316.801 1022.59 313.501 1022.59C304.884 1022.59 300.3 1022.31 299.75 1021.76 298.1 1020.66 297.275 1019 297.275 1016.8L297.825 1011.84ZM1172.22 999.705 1301.75 999.705 1347.95 999.705C1349.96 1002.17 1350.97 1004.25 1350.97 1005.96L1346.85 1008.79 1180.47 1009.08 1177.44 1009.08C1175.06 1009.08 1173.13 1008.8 1171.67 1008.25 1170.2 1007.7 1169.47 1006.6 1169.47 1004.94 1169.47 1001.45 1170.38 999.705 1172.22 999.705ZM407.004 988.401C411.954 988.401 415.666 988.769 418.141 989.504 420.617 990.239 421.854 991.894 421.854 994.467L421.304 999.154 418.829 1000.26 299.2 1000.26 297 995.845 297.825 990.607 299.2 989.228 344.852 989.228 393.253 989.228C393.986 989.228 395.957 989.091 399.166 988.815 402.374 988.539 404.987 988.401 407.004 988.401ZM1172.22 982.06 1345.75 982.06 1350.7 985.575 1347.95 991.434 1172.22 991.158 1169.47 987.85 1170.29 982.887ZM302.5 966.896 418.554 967.999C420.754 969.653 421.854 971.491 421.854 973.513 421.854 976.822 420.387 978.476 417.454 978.476L299.75 978.476C297.917 978.476 297 977.097 297 974.34 297 973.237 297.046 971.905 297.138 970.342 297.229 968.78 297.825 967.999 298.925 967.999 300.758 967.999 301.95 967.631 302.5 966.896ZM1170.84 964.415 1192.84 964.415 1341.07 964.415C1344.19 964.415 1346.57 964.698 1348.22 965.264 1349.87 965.829 1350.7 967.431 1350.7 970.067 1350.7 972.703 1346.57 974.304 1338.32 974.87 1330.07 975.436 1324.2 975.719 1320.72 975.719L1315.77 975.719C1280.57 975.719 1247.8 975.397 1217.45 974.754 1187.11 974.11 1171.21 973.329 1169.74 972.41L1169.47 966.896ZM299.475 945.667C300.575 945.667 301.4 945.667 301.95 945.667L418.554 945.667C420.387 945.667 421.304 947.413 421.304 950.905L420.754 955.041C412.87 955.041 402.924 955.271 390.916 955.73 378.907 956.19 371.986 956.419 370.152 956.419L300.025 956.419C298.008 956.419 297 955.225 297 952.835 297.183 950.813 297.275 948.7 297.275 946.494 297.642 945.943 298.375 945.667 299.475 945.667ZM1759.5 902.932C1781.5 902.932 1797.68 903.116 1808.04 903.484 1818.4 903.851 1829.62 905.138 1841.73 907.344L1842 910.101C1842 912.306 1839.98 913.915 1835.95 914.926 1831.92 915.936 1826.69 916.442 1820.27 916.442 1814.77 916.442 1809.55 916.304 1804.6 916.028 1799.65 915.753 1795.25 915.431 1791.4 915.063L1789.2 918.096 1788.92 1024.52 1787.27 1026.17 1726.22 1026.17 1719.62 1026.17 1715.77 1026.17C1706.97 1026.17 1701.47 1026.08 1699.27 1025.9 1697.07 1025.71 1695.24 1025.25 1693.77 1024.52L1693.77 1015.42 1693.77 1007.15 1693.77 1000.53 1693.77 994.742 1693.77 989.228 1693.77 984.266 1693.77 980.13 1693.77 976.822 1693.77 973.513C1693.77 970.388 1693.72 967.264 1693.63 964.139 1693.54 961.014 1693.5 957.798 1693.5 954.489L1693.5 952.008 1693.22 916.166 1691.3 914.512C1687.08 914.512 1681.67 914.742 1675.07 915.201 1668.47 915.661 1664.62 915.891 1663.52 915.891 1656.37 915.891 1651.05 915.385 1647.57 914.374 1644.09 913.363 1642.34 911.663 1642.34 909.274L1642.62 906.516C1645.55 905.414 1658.98 904.541 1682.91 903.897 1706.83 903.254 1732.36 902.932 1759.5 902.932ZM1754.82 886.941C1764.36 886.941 1778.66 887.309 1797.72 888.044 1816.79 888.779 1831.18 889.147 1840.9 889.147L1842 893.007 1841.73 896.315 1839.8 897.418 1645.37 896.591 1642.34 892.18 1642.07 890.801 1646.74 887.493C1658.66 887.493 1676.63 887.401 1700.65 887.217 1724.66 887.033 1742.72 886.941 1754.82 886.941ZM1063.72 871.226C1070.14 871.226 1079.86 871.594 1092.88 872.329 1105.89 873.064 1115.61 873.432 1122.03 873.432L1123.95 876.189C1123.22 883.357 1122.85 891.353 1122.85 900.175 1122.85 906.608 1122.94 913.087 1123.13 919.613 1123.31 926.138 1123.49 932.617 1123.68 939.05 1123.68 966.437 1118.18 986.839 1107.18 1000.26 1094.89 1015.14 1075.46 1022.59 1048.87 1022.59L1043.1 1022.59C1022.2 1022.59 1006.57 1022.31 996.21 1021.76 985.852 1021.21 979.755 1020.38 977.922 1019.28L977.922 927.746C979.206 927.011 980.947 926.459 983.147 926.092 985.347 925.724 987.272 925.54 988.922 925.54 992.956 925.724 995.889 925.816 997.723 925.816 1002.12 925.816 1004.64 925.724 1005.29 925.54 1005.93 925.356 1007.35 924.621 1009.55 923.335 1009.55 919.291 1009.55 915.155 1009.55 910.928 1009.55 906.7 1009.64 902.473 1009.82 898.245 1009.82 892.364 1009.91 887.585 1010.1 883.909 1010.28 880.232 1010.83 876.281 1011.75 872.053ZM1826.05 869.572C1830.45 869.572 1834.21 869.893 1837.32 870.537 1840.44 871.18 1842 872.88 1842 875.637L1841.73 878.394 1839.25 880.049C1821.47 880.049 1806.34 880.187 1793.87 880.462 1781.41 880.738 1766.24 881.014 1748.36 881.289 1730.48 881.565 1717.97 881.703 1710.82 881.703L1689.65 881.703C1677.36 881.703 1668.52 881.565 1663.11 881.289 1657.7 881.014 1650.96 880.049 1642.89 878.394L1642.62 874.535 1643.72 870.675C1659.67 870.675 1678.83 870.629 1701.2 870.537 1723.56 870.445 1744.88 870.307 1765.14 870.123 1785.39 869.939 1805.7 869.756 1826.05 869.572ZM1710.82 852.478C1732.09 852.478 1748.13 852.57 1758.95 852.754 1812.67 853.673 1839.62 854.132 1839.8 854.132L1841.73 857.992 1841.18 861.576 1644.82 861.576 1642.62 857.165 1642.89 854.132 1644.82 853.029ZM1012.3 850.272 1054.1 850.272 1079.68 850.272C1094.89 850.272 1109.19 850.916 1122.58 852.202 1123.49 853.121 1123.95 854.408 1123.95 856.062L1123.95 860.749 1122.03 862.128 1013.67 861.576C1011.66 861.576 1010.65 860.014 1010.65 856.889 1010.65 853.397 1011.2 851.191 1012.3 850.272ZM1502.91 836.487C1512.63 836.487 1528.81 836.671 1551.45 837.039 1574.1 837.406 1586.15 837.59 1587.62 837.59L1588.44 838.141C1588.44 849.721 1588.76 864.471 1589.4 882.392 1590.05 900.313 1590.37 910.652 1590.37 913.409L1588.17 915.339 1577.3 915.339C1571.92 915.339 1566.67 915.385 1561.56 915.477 1556.46 915.569 1550.93 916.077 1544.99 917.002L1545.26 918.114 1590.35 945.158 1590.37 953.662 1586.79 953.662C1568.35 942.818 1558.48 937.028 1557.19 936.293 1547.22 930.595 1537.36 924.805 1527.58 918.923 1517.44 913.409 1507.38 907.803 1497.42 902.105L1496.04 905.138 1497.14 910.101C1507.41 916.35 1517.72 922.553 1528.08 928.711 1538.44 934.868 1548.84 940.981 1559.29 947.05 1571.76 954.402 1582.12 960.651 1590.37 965.798L1588.72 974.62 1497.41 923.059 1496.86 926.643C1496.86 930.319 1504.88 936.66 1520.92 945.667 1535.87 953.754 1550.9 961.842 1566.03 969.929 1582.26 979.119 1590.37 985.828 1590.37 990.055L1590.37 994.467 1586.81 994.428 1498.5 942.66 1497.14 949.548C1504.27 954.511 1514.51 960.943 1527.85 968.844 1528.58 969.392 1539 975.455 1559.11 987.031 1571.9 994.564 1582.32 1000.9 1590.37 1006.05L1590.37 1012.39 1590.37 1015.14C1559.57 997.867 1528.86 980.498 1498.25 963.036L1497.14 963.863 1496.86 967.448C1496.86 968.734 1503.83 973.789 1517.76 982.611 1530.78 990.883 1544.53 999.246 1559.02 1007.7 1577.9 1018.91 1587.71 1024.7 1588.44 1025.07L1588.17 1026.17 1533.01 1027C1505.25 1027 1483.18 1025.16 1466.82 1021.49 1444.2 1016.34 1427.01 1007.42 1415.25 994.742 1401.46 979.671 1394.56 958.717 1394.56 931.881 1394.56 900.819 1405.1 876.832 1426.19 859.922 1445.62 844.299 1471.2 836.487 1502.91 836.487ZM1285.52 835.936 1314.67 835.936C1323.1 835.936 1332.55 836.394 1343 837.31L1343.82 838.404 1344.37 866.125 1343.82 894.123C1341.8 895.22 1330.71 895.997 1310.55 896.455 1290.38 896.913 1273.97 897.142 1261.32 897.142L1265.44 900.727 1314.95 901.002 1316.6 903.208 1317.42 945.115 1319.62 947.321 1349.05 948.148C1349.41 949.619 1349.87 950.997 1350.42 952.284L1349.87 955.316 1347.95 956.419 1187.34 957.246C1184.96 957.246 1182.12 957.201 1178.82 957.109 1175.52 957.017 1172.31 956.144 1169.19 954.489L1169.74 838.417 1170.84 837.039C1188.44 837.039 1202.74 836.965 1213.74 836.819 1257.38 836.23 1281.3 835.936 1285.52 835.936ZM861.009 835.936C887.602 835.936 910.115 845.015 928.547 863.172 946.98 881.33 956.196 903.774 956.196 930.503 956.196 957.416 946.938 980.089 928.42 998.523 909.903 1016.96 887.169 1026.17 860.218 1026.17 834.551 1026.17 812.275 1017.05 793.391 998.812 774.507 980.57 765.065 958.645 765.065 933.036 765.065 928.797 765.203 925.572 765.478 923.361 765.753 921.149 766.44 917.372 767.54 912.031 770.29 911.663 778.174 915.155 791.191 922.507 799.258 927.103 811.542 934.547 828.042 944.84 836.659 950.354 845.368 955.868 854.168 961.382L856.643 959.728C854.076 955.133 840.968 945.667 817.317 931.33 802.1 922.324 786.883 913.225 771.665 904.035L774.141 895.488C781.474 899.716 790.549 905.138 801.366 911.755 813.65 919.107 822.725 924.529 828.592 928.022 838.859 934.087 848.118 939.234 856.368 943.461L856.643 938.498C830.059 921.772 803.475 904.954 776.891 888.044L780.466 881.427C782.482 881.795 789.174 885.287 800.541 891.904 811.908 898.521 822.45 904.77 832.167 910.652 839.684 915.431 847.293 920.21 854.993 924.989L857.193 922.232 856.643 920.026C832.809 905.138 809.067 890.158 785.416 875.086L788.441 869.296 792.016 869.296 854.993 906.792 857.468 902.932C851.235 896.315 841.334 889.239 827.767 881.703 809.983 871.594 799.35 865.344 795.866 862.955L801.65 857.441C820.012 867.918 838.468 878.303 857.017 888.596L857.292 883.465 809.561 853.124 810.111 850.587C817.081 845.705 825.059 842.042 834.045 839.599 843.032 837.157 852.02 835.936 861.009 835.936ZM1718.52 835.384C1731.9 835.384 1752.07 835.66 1779.02 836.211 1805.97 836.763 1826.23 837.039 1839.8 837.039L1841.18 843.38 1840.35 844.207 1646.74 844.207 1642.62 840.347 1643.44 836.211ZM621.923 834.281C638.607 834.281 652.266 835.109 662.899 836.763 679.95 839.52 693.059 844.207 702.226 850.824 713.959 859.463 719.826 871.318 719.826 886.39 719.826 896.315 717.443 904.954 712.676 912.306 708.643 918.372 702.134 924.713 693.15 931.33 695.534 933.352 698.467 935.466 701.951 937.671 711.301 943.737 716.434 947.045 717.351 947.597L716.526 955.041C713.069 954.122 703.333 948.975 687.319 939.601 681.131 935.925 665.936 926.551 641.732 911.479 623.533 900.083 612.432 893.191 608.431 890.801L605.973 892.18 605.973 897.97C617.678 904.954 629.383 911.847 641.088 918.648 663.581 931.881 680.224 942.083 691.015 949.251 708.022 960.463 716.526 967.631 716.526 970.756 716.526 971.491 716.344 972.043 715.978 972.41 715.613 972.778 715.064 972.778 714.33 972.41 696.409 961.933 678.624 951.457 660.974 940.98 643.325 930.503 625.356 919.567 607.068 908.171L605.973 915.339C615.314 922.324 627.127 930.135 641.41 938.774 652.582 945.575 664.853 952.835 678.223 960.555 695.439 970.48 707.71 977.741 715.035 982.336L716.526 990.055 712.951 990.055C704.583 985.093 693.122 977.833 678.566 968.275 664.011 958.717 652.366 951.273 643.632 945.943 629.807 937.671 617.709 931.33 607.339 926.919 606.428 928.757 605.973 930.043 605.973 930.779 605.973 931.33 607.479 932.755 610.493 935.052 613.507 937.35 615.289 938.682 615.839 939.05 624.241 944.932 635.111 952.008 648.449 960.279 656.487 965.242 667.539 971.951 681.604 980.406 700.056 991.434 711.2 998.143 715.035 1000.53L716.526 1008.53 714.597 1008.53C696.584 997.5 678.664 986.793 660.837 976.408 643.01 966.023 625.09 955.592 607.077 945.115L605.148 947.321 605.973 951.732C617.523 958.717 629.073 965.609 640.624 972.41 658.774 983.255 675.458 993.64 690.675 1003.57 707.909 1014.78 716.526 1021.39 716.526 1023.42L715.035 1026.17C697.446 1016.43 686.179 1010.46 681.235 1008.25 674.637 1005.31 660.897 1003.84 640.014 1003.84 630.852 1003.84 616.837 1003.57 597.967 1003.01 579.098 1002.46 564.899 1002.19 555.371 1002.19 555.371 998.143 555.188 991.204 554.821 981.371 554.454 971.537 554.271 966.253 554.271 965.518 554.271 951.916 554.546 935.925 555.096 917.545 556.379 874.718 557.021 848.067 557.021 837.59 558.488 836.671 568.113 835.89 585.897 835.246 603.681 834.603 615.69 834.281 621.923 834.281ZM1106.08 827.94C1110.11 827.94 1113.73 828.216 1116.94 828.767 1120.15 829.319 1122.49 830.513 1123.95 832.352 1123.95 834.557 1123.95 836.303 1123.95 837.59 1123.59 838.325 1123.4 838.785 1123.4 838.968 1122.85 839.887 1122.39 840.531 1122.03 840.898L1012.3 839.244C1011.2 838.693 1010.65 837.406 1010.65 835.384L1011.47 829.87 1013.67 828.492ZM1011.47 807.814 1012.85 807.814 1122.03 807.814 1123.95 811.398C1123.95 813.42 1123.95 815.35 1123.95 817.188L1120.93 819.118 1011.75 817.188C1011.01 816.406 1010.65 814.942 1010.65 812.794ZM1014.77 784.93 1122.03 786.033C1123.13 786.952 1123.68 788.514 1123.68 790.72L1122.85 796.51C1119.37 796.51 1114.14 796.51 1107.18 796.51 1100.21 796.51 1094.98 796.51 1091.5 796.51 1081.6 796.51 1072.89 796.663 1065.38 796.968 1057.86 797.275 1050.89 797.581 1044.47 797.888 1030.36 797.888 1019.82 797.429 1012.85 796.51L1011.2 792.65 1011.47 787.411ZM396.828 783C420.846 783 440.555 784.562 455.955 787.687 476.489 791.915 492.165 799.083 502.982 809.192 515.815 821.323 522.232 837.866 522.232 858.819 522.232 886.941 511.507 907.344 490.056 920.026 472.639 930.319 448.897 935.466 418.829 935.466L300.025 935.466 297.275 932.984 298.1 924.437 418.554 923.61 420.754 915.891C419.654 915.155 413.237 914.604 401.503 914.236 389.77 913.869 377.303 913.685 364.102 913.685 350.902 913.685 338.939 913.685 328.214 913.685 317.488 913.685 308 913.685 299.75 913.685L297.825 912.311 297.275 789.608C298.925 787.957 301.629 786.719 305.388 785.893 309.146 785.067 312.951 784.654 316.801 784.654 319.184 784.654 321.522 784.7 323.813 784.792 326.105 784.884 328.351 784.93 330.551 784.93 337.518 784.93 348.885 784.608 364.652 783.965 380.419 783.322 391.145 783 396.828 783Z" fill="#2F5597" fill-rule="evenodd"/></g></svg>